<mxfile host="Electron" agent="Mozilla/5.0 (Windows NT 10.0; Win64; x64) AppleWebKit/537.36 (KHTML, like Gecko) draw.io/27.0.5 Chrome/134.0.6998.205 Electron/35.3.0 Safari/537.36" version="27.0.5">
  <diagram name="PÃ¡gina-1" id="TC6257-F7DS0nvJmtOFi">
    <mxGraphModel dx="1360" dy="862" grid="1" gridSize="10" guides="1" tooltips="1" connect="1" arrows="1" fold="1" page="1" pageScale="1" pageWidth="827" pageHeight="1169" math="0" shadow="0">
      <root>
        <mxCell id="0" />
        <mxCell id="1" parent="0" />
        <mxCell id="fB_JaEAP2gieiiK0Zqah-2" value="Web Scrapper" style="rounded=1;whiteSpace=wrap;html=1;arcSize=4;verticalAlign=top;align=center;fontStyle=1" parent="1" vertex="1">
          <mxGeometry x="129" y="130" width="570" height="120" as="geometry" />
        </mxCell>
        <mxCell id="fB_JaEAP2gieiiK0Zqah-17" value="" style="edgeStyle=orthogonalEdgeStyle;rounded=0;orthogonalLoop=1;jettySize=auto;html=1;entryX=0;entryY=0.5;entryDx=0;entryDy=0;" parent="1" source="fB_JaEAP2gieiiK0Zqah-5" target="fB_JaEAP2gieiiK0Zqah-6" edge="1">
          <mxGeometry relative="1" as="geometry" />
        </mxCell>
        <mxCell id="fB_JaEAP2gieiiK0Zqah-5" value="" style="sketch=0;pointerEvents=1;shadow=0;dashed=0;html=1;strokeColor=none;fillColor=#505050;labelPosition=center;verticalLabelPosition=bottom;verticalAlign=top;outlineConnect=0;align=center;shape=mxgraph.office.concepts.web_page;" parent="1" vertex="1">
          <mxGeometry x="149" y="165" width="50" height="54" as="geometry" />
        </mxCell>
        <mxCell id="fB_JaEAP2gieiiK0Zqah-16" value="" style="edgeStyle=orthogonalEdgeStyle;rounded=0;orthogonalLoop=1;jettySize=auto;html=1;entryX=0;entryY=0.5;entryDx=0;entryDy=0;entryPerimeter=0;" parent="1" source="fB_JaEAP2gieiiK0Zqah-10" target="fB_JaEAP2gieiiK0Zqah-9" edge="1">
          <mxGeometry relative="1" as="geometry" />
        </mxCell>
        <mxCell id="fB_JaEAP2gieiiK0Zqah-10" value="" style="sketch=0;outlineConnect=0;fontColor=#232F3E;gradientColor=none;fillColor=#232F3E;strokeColor=none;dashed=0;verticalLabelPosition=bottom;verticalAlign=top;align=center;html=1;fontSize=12;fontStyle=0;aspect=fixed;pointerEvents=1;shape=mxgraph.aws4.iot_analytics_pipeline;strokeWidth=1;" parent="1" vertex="1">
          <mxGeometry x="498" y="171" width="78" height="42" as="geometry" />
        </mxCell>
        <mxCell id="fB_JaEAP2gieiiK0Zqah-11" value="Web" style="text;html=1;align=center;verticalAlign=middle;whiteSpace=wrap;rounded=0;" parent="1" vertex="1">
          <mxGeometry x="144" y="220" width="60" height="30" as="geometry" />
        </mxCell>
        <mxCell id="fB_JaEAP2gieiiK0Zqah-12" value="ETL" style="text;html=1;align=center;verticalAlign=middle;whiteSpace=wrap;rounded=0;" parent="1" vertex="1">
          <mxGeometry x="507" y="219" width="60" height="30" as="geometry" />
        </mxCell>
        <mxCell id="fB_JaEAP2gieiiK0Zqah-13" value="Data Base" style="text;html=1;align=center;verticalAlign=middle;whiteSpace=wrap;rounded=0;" parent="1" vertex="1">
          <mxGeometry x="619" y="220" width="60" height="30" as="geometry" />
        </mxCell>
        <mxCell id="fB_JaEAP2gieiiK0Zqah-14" value="" style="group" parent="1" vertex="1" connectable="0">
          <mxGeometry x="230" y="152" width="129" height="70" as="geometry" />
        </mxCell>
        <mxCell id="fB_JaEAP2gieiiK0Zqah-6" value="Web Scrapping Algorithm" style="shape=process;whiteSpace=wrap;html=1;backgroundOutline=1;" parent="fB_JaEAP2gieiiK0Zqah-14" vertex="1">
          <mxGeometry x="9" y="10" width="120" height="60" as="geometry" />
        </mxCell>
        <mxCell id="fB_JaEAP2gieiiK0Zqah-8" value="" style="shape=image;verticalLabelPosition=bottom;labelBackgroundColor=default;verticalAlign=top;aspect=fixed;imageAspect=0;image=https://s3.dualstack.us-east-2.amazonaws.com/pythondotorg-assets/media/community/logos/python-logo-only.png;" parent="fB_JaEAP2gieiiK0Zqah-14" vertex="1">
          <mxGeometry width="29" height="35.14" as="geometry" />
        </mxCell>
        <mxCell id="fB_JaEAP2gieiiK0Zqah-15" style="edgeStyle=orthogonalEdgeStyle;rounded=0;orthogonalLoop=1;jettySize=auto;html=1;exitX=1;exitY=0.5;exitDx=0;exitDy=0;" parent="1" source="fziwPW4sXeJ1kSOILinP-1" target="fB_JaEAP2gieiiK0Zqah-10" edge="1">
          <mxGeometry relative="1" as="geometry" />
        </mxCell>
        <mxCell id="fB_JaEAP2gieiiK0Zqah-20" value="Sentiment Analysis" style="rounded=1;whiteSpace=wrap;html=1;arcSize=4;verticalAlign=top;align=center;fontStyle=1" parent="1" vertex="1">
          <mxGeometry x="129" y="280" width="570" height="120" as="geometry" />
        </mxCell>
        <mxCell id="fB_JaEAP2gieiiK0Zqah-26" value="" style="group" parent="1" vertex="1" connectable="0">
          <mxGeometry x="619" y="162" width="60" height="60" as="geometry" />
        </mxCell>
        <mxCell id="fB_JaEAP2gieiiK0Zqah-9" value="" style="strokeWidth=2;html=1;shape=mxgraph.flowchart.database;whiteSpace=wrap;" parent="fB_JaEAP2gieiiK0Zqah-26" vertex="1">
          <mxGeometry width="60" height="60" as="geometry" />
        </mxCell>
        <mxCell id="fB_JaEAP2gieiiK0Zqah-23" value="" style="shape=image;verticalLabelPosition=bottom;labelBackgroundColor=default;verticalAlign=top;aspect=fixed;imageAspect=0;image=data:image/png,iVBORw0KGgoAAAANSUhEUgAAAOEAAADhCAMAAAAJbSJIAAAAflBMVEX///8zZ5EwZZAfXYsqYo4oYY0tZI8jX4wdXIoXWonw9Pf6/P31+Prr8PTg5+13lK/I1N+SqsCftMfT3ebm7PGNpr2En7hLd5ybsMTM2OK4yNbAzdpBcZirvc7b4+p/nLZih6dVfqG0xNNsj61FdJuou8xagqR6lrEAVIUAUYT73WEmAAAcDUlEQVR4nO096ZqjLLMtqGj2zawm0Zhlzv3f4BGoQjSoYPe8k3m+qV+9GENB7RtfX//gH/yDf/C/B6PZejV/h+S0+dMr+wHYnPbFzvOjwA+b4Ac03BX7xei/Wst4PORDm8PxsU+22yRZrh7n4+lwmU3wn5tzEVLGQuIRzwyE+IzSdHv8jViOp+vbfpvlqeeF5Vemuzybb/eP43oz6sF4vDkmTz+OGGOB7wcllD/RKI5j73kt0d3eYxa2YNbA06fxcz/7HehdbvNdGFPm+yHBTeXkw1fKvF2RHC8tn5wckpzRoAWDkCPsvx9ceZjl2zmFvv0vZOz5+OGTPCQpY4ZlaFsb0MDLHuu3j66vHgs6Ptl4DwmDcsvK0w28e55lRZE9714cR+XW6lsUMu/VtqPucNmy2G6NPoto8ZhVJDs5p7FvwMMzclsYUD/NtudFSfb1JYwui8c196hOyn6cve/nEFhk5Xbqq+OCjXE+Kpkp8Js0VIqD+L49TflHx2ePEv0/jMac39I09YKSKQPtWMIg9rLlYtbF0KPLo0gjpl7px8X3cVw8I3UGJQHRmKaldFmuVqvHY7XaL69ZGou1Eg1T4kfkuTzu79piaHx/7W+Ly2Y6Gk0mk9F0sz6utvzTLAxZHBartRVnTS7LtNrykL6m38Jvk1Hc5ZDRMF+eTEKsVAKr1708WJ1TSnZC/EhAve2pZf3j9XmeL91Y6rL0GO67z/bueClYxbBkwli+PHRrhPHlWHJK9CYyQ5omP8MvOpwyijiydOjrZ08K+NHUdpOniyRviIPnaYh1wKEk5em0VdOu53iOIR12jCegORKlR6c1Tm9FDBtM4qf7/o5nh+P+WuS7lL8iTUul8dqf1u/8NpsDjRH2nBhe1APLGGng6P7h8WLulSqe3Reun9xkEdd9NbuC+EIKc2HU2OrLE3jdD52V4zaSnwz27+c35oLwUIrFzXTSerrjwzZfNf42mp3Oy2R7fb2uSVIK1tnU8PK9V1NOOkcHUVic6y7GDZ4mzPEg5pIFWV7fmvHllhTPXUpoHEVRSYppnhXblYmEmjA6bZ8eP53SLvWFaVpaLh53F5pe0TSJ2k3UkPnZWRfL0yKWx8ia+9kJVyq5KKl98y3zygVqdiIRpmlpr5W0ku1PHWgeM2I0TEmphPx70iDmWRa3m1Cl6e1fdaV1llYFiZIva1hG8uBv1Z/GtzxmBvtL4Vp6NrG3PRro7muzpLT9o+UuBRGdn2qy4pS2kaqA0pjRiOviybdHL1sEj/IEw2pnR3uP2jg3pcW2Sw51uTbdMtZr1JZWkLfUD2ayjTo/FMavirpHTyb+yOZ2CM7k4/Sg/vLwmAV6sNaApoVGdSvSj58EFhQHbRkLr+PcSwhIxXhjlBuFFYYpPy0Sq1Vedvb4CQh9dRozl8+SkOYajpOMdj/P8uoYEyn7mQ2hJmJN9KwOsEOymaE6/aPrZ8M402h137M9viYpVlLe0H5xcxGeINvi79sOsWaGSFGPlFiOOLKk4uNTl9MtEJqrhx/yxCN1NG3w5Lse7lAkzh0ptOQPxQuvHiozAwnSio0vYTczliaXEqp7YYWRuMdOPIptj5BUCmcE/WpzBiEoFnlVOmeU9qAYxurQEqkDvG4bNRU0uq99xgl83NOr8+ZUENzVQYzyTs3I92OpiEZ8Jbt2IXjjKJEUtvAWO69N7eh+6AkKCJk6mVHec4qeMmbG4lHCuuhUHGEERuzF/RT8DF50ct+cxrKVrJukfQI5wlOcifMOO7TikeMU5vqOuIEPtunmuwiWYjJDfhr1ohg/4FEpUON2VyrjONGj/rQTMPymAZvzBsEOUby0RvoR4pNOhMH2qwVm3MAiKRCH+yLJHRh49S0mRPDv6CYtehVrAObNmVMhYW0YLjkZo5+17JFhBkATY2ZrivZAmKJD9uhDMYTNnQiCjtpiCzu+sFhu3HjAEe6Q2F3tvPZ14yn26h4G0ubF1x0s33ATcOEbhdLw7C5IKRzh4vtiBkHZD+Nn364RuRnC9UNh2YQVRwopLXc/Bx/ec/8ZGhUQwIZ/bUjPW0HHSYXhmeNHAikmt2KALkQGPv6ImFFvRQtl0fNaEKATHoMkoTElPubEFT7lL+5yhgTTwaffBcpVWXZvOlJmLuxOo0Y8cDZEHnVfpg8hhNOPHmEJEbqbPUo2lE8JMUcPb+iV8OB7RKXqHGCTUJDQ2Q8o+xqQEIhj1k1XsXyqELx2MyAo/kVAc96c2RDN9dnPCVIE/6mfQSvE0gTaCnVhDJ7ehUGjPeYEaCkl7oZCL1BcbyfvxPJwROjDqBBH/Clk152zwEeX5RteYSsQCh75uotAokt10IEpXCP0AzoeA0hNfrDfghwCIdjKX9cOConWFYP5Jttb6Bs43YvzOn1QW6+fljMSKDgto47Xg8wVHqDRu1gJs1vKIHeJDzJ4MhyJHgADtSPACBiKtRup9Mq3hx0qWnYCEGSH38GGHBgsedT+SO0MTZJmK85QsrSzKEVT6HdIUgGEgR22at1DCCOeWzE8MZ4gkcRQuGKIb+z1AAZDAIzezgcgS6W2MOjDkfD/ifzF2WYDl3PaF6P+BsRg2bRazPCApEVD5FvYaRjBcPV/CJNv/z26QgIe4qhNk9WsNkPOW2CICj91/HYCjmpfKuU7gLsoUTCBxijUEMaQGGbyF9dvR7/ix61uHVCcHsyEAsJuLMwxaggKSwylSTN2/XJk7G/i0AcQQTLzENgcI0F/gcE/FBj6MsHorLeBKKY/71fogOkUMy/ALm94IQUhBh//WxjClvUFGgYCVHsGLOyKsIBVBQanIf/0LQw9KQRqphAhYmX+91gzoHGavZL96rFaraC8e2z0fGL5z5PMLb0jCHw4H4QhvhDNbkL4lu+K7XK/3GYes6rjMIDPvMTUf2A070N5bMK8RolpOMNhkqbuVYbMzxO90mlze1oW4teA0KwldG2K5eIapItvMry/ow/Rq2TEI0H0fLyz+TqjrtZOkJ7eXgOwMGAIDAbq0BSmkTbNXf7iaNOANzalhEVJSyvEzbHigRbtyeqDQaKBKJUMFplCbaOdZpc6Jh7g7Zdf6aq9EvXy3jfRhWBrguzLfIaAlAwSxsaS64XmW1zdBCBYgeuH6b0Vig4YBrXKH14sLOrfYf9MDjpoQPmv0LgA6QFr0Rx7MFmBHEabWgXpyfqtoUqOfo0XSXb3eNIive/uEg2DpMG8l/A8WtLcAkNYq6Pqjt6twMlin4n2qFTr35nbkobasvHSi6IojkS/DiGx5gI29gQsY+H3maOlEKeRfpVjyDtqCM/p+flLLIo3RoVMlYO0Oj7N5WbwgUMY0XT+OC3OhSBxDPq+u4joEEo2NMb0ZcoIY1RuGNYZe1GAivdpurunlPoRrtiSvxnoiUUU7PA011xQUfmzQeMDe625zUaYWQyvRZwRKDh1Eu2xxmzHHC2Y4DqbjCeT6WkeYelIZ0RXAWGQsQ7CVK2VZ83QdjJ4iCBbznoxSRNEChIZttXLNGNYnd+9arLJ1F8vyKljq51TGT6mBXbXtMpPv0eDULYIB7W1FEM+K23o9oiWEUM4w02hqXU93DX7BdLfikzRS7oTVZ0lsYKlGxxEYEOp72mbMSTtHWmSHN0wlLQ0C/T1o30kIAB35mwjpEG9zkrOCwqJ4niuRdCmhhXIZQtOa0kAf0GsE70sJ1EDUa5GFY1mHM5ikPMXGwwhcCcztrvbZjI735mOumH75fcI0iMtbAjnBhQyceJDKNZsKmJVpji5E6iW6ghZa6/TUiyl2KGUQn0ORETfI3rIr8LabK+IEt5xTXPaAhxQ02Yh4Y3T5viw85Xpb/NePXhdR11qpXeLK5KUNxUvZ60+yZf0LiThO1mmsOnvJj9Ni+t8p9eS2bwXz/CdoiUzv6cOoJZG+vdBe6em8C5gn5wKhqAuYP2+JBJihxbIWxuLF2y2N/ua5PIdb6oMtYjwftu0oXiA7w2wuWG1HUuSdDHr+gyQnsnxaQKk+N6kEkYg3sI0wOQyNNFilEqy6JbIHUs69mPIaiVLnYBxwWbNJURE36JIxJfqQVpMHcWlUkWgdZA72G2gFzadGIIBYCFpUCo1DSCIvrzZ70iXkLNpRxA2B6rTXEQNeiRdGKLFaxEgQdOxmSMATfamq7FuV35PV3BAqhMo2nCxauArOjHssJrfAFyIpukIG7luqkMwOOTfW0tLBdSsGgcMkXG6pZN9eopqrpCOoWSGZmam5t4bo90VHPUkvwOVAoadkgatRRvawJqt5hmejBii8yvo3+9u0Jvp3pVDpswGQywpasmN1QClXUO1A3U1nEwC9aJrpj3TBhMpBrTwuBOG3WY1mAU2pTpYe9bABRVO/Q0oeWE7ekZPiAoF3Gx79wIkTbeVALtrlYHDBGddt4NSarwBRIt0GruaSapzQwvBPg4PX92NIbCLVTQKZUFdmqJ/UnsDOsnyvHuIFGxndC/sA98oAroxBL/MBkO0/6e1JUDUYFLbebQkrrLlqQfBr5EISzqXHVhFWXF9VsSPiYe5jiJYbbVgD1YSjYUL6Xe2rQkQxAwfsmdEvaKsHcMWm8sIuNSaoY4uhO5j4t9k+XxLoFQH4V5A49PImg8jswfcWDQkqOwCihQUd+28gLj0ii00YQTWtdBQC4itqMUEbADMpu7SaXirZTgdbc26rHkrYCZgZ8vQjc3giKmeRbTuSIB4abd3Cxhalq6q/jL9cfDOtbYE1aQl/tQaZNNBUAWciW1+BiVY944AH9qFvatoi56jANevij9gndQktVKG8oVC50tGtPWCm4UKLUuW2sK29A0D3xtNLb+FN9Cekf3ZrF/OfGGVNEgyy4AbLqabb0HjW5cf43q1fcPwhtokLJ8XwWxjick7gAckf+npw0HAnewu8IcDsPY7keYuVTMjcJ2KhODWSp+YdaegEca5Ftu38QM8pct7or2Q/7LvVQEdpCkHIHTFPWijyXhEbDkrKtELUO0whM2b9ZTPSkFobylh8qryJXxsT8Mvkg9IM6k91N0AIUBVssqKEbFQoXM/XELCABg1U8lxtJh39blJUktFtrOwJAmAg2YXF26L4NZgQLoA91kZCXWzjVDwBcWRqkkA/SCTbFJI2bVpgVnazWFI+C75EBSVW3izCj/I/AS4WNIk7fWbKlhpKSi74igrDCHD59SbioeIokWFGYVygDgwqIqd/dQ8mYLK5C9W/RORDZWCVHBr+0NfH9QWmpMyiQZKW/rdlqpCAkcKzSErfYERoq5n0Wt3KxDAjYZAPmLIT41A8wu8saX8wgyyOEqaDyObKkVgsVmXlISMmVM6xKscPjnBAjHkkgZj6KDtWxrwzXDUQxlziz0Hpu3S+MhBhpxgJ6hUmcjSwJGK5FOsHyGhTnNaR4LaAkDXgm9QIHS0BGEXqPO0BfRwj1qCmhMWHqE0B6y1/Ze2DKAPuz4f+bkuc2WqrccFQpxEwSlTs9pwzpOwBrB72RoeeveXza5D1Ve7qEFnZUBrmxpFwZTxdKHq0KRZ7nqEMnaNVpYN56C32r5MsKgG9O6poqFyq2NVQ4oz76RV7rteKiDTyOAL2MTG0H1qI1OUF6chjV9ofR4oavUlw3Fyl0Fc+IX+hQOZQoho2hImh2KQYd2JKuz2pLgiHzoPIHtkrnnuBBG8VgLeJh2GQZWWZ+V/Z/bD52svx46u/wOqCiIwYA4DdKEEWdQAzDO1WJfyAoyHhEbugKlFAnC8FvDCKcZwxU76GEPuEJBmDSzMxtBCE8o0IIr4ekBsADQOqfgFFCOdCrfpugjCHEUytVH6KvVqYDU19GRwgynRLZbpLyAYmU8jqYtFWoFYJxT5WFXboT9uoGkGZolz+7SCWmd2gsr+0RhD6gYiDqv8AYulKQPyLcWGCu07Q+qC6hAnSLMjyYR2IcR3kOYJxLKtYt9qL0+NUWZKznxnUmRVf/AAgxlGZET2rn0dJI2j2Wu1ihAbng71maPoBHyrU18NJZ3g/GbpNXWV6fWA2HGUEVbb7+cYR6gND0Yy+t5wJTXNb4M5UCnSjC1cdgDxFKlq7FioIqXxNlYnFjjonK6XNzoKZRSw6geYHm77a5EV17P1gP1c7+OzW141kPPr8sQZ5WAtT787bCGutRRCgt9ff002h/N2xxuHmB/6Pr8DxpI1hSzGIKSlKqOaVD9cvTjwCfp3A0b4NV+uNzbOwTzKUwZNURWQqKN1Ud8lmVWF3mLLlstYty9Gi2WW/nLQON0QVr0X1dxC87ICu9CiDNkBF9l1mFTjOBXAV01/UTqkF1gHbeC6GTPCQaKY2WAoKBMloVXVAvFaPdHpYrHY5x1XD/RCSHc3PJmk2XFL/IBRku7yuy/Jt3+q9xc6GDjc1WYmD+0TY5disMpgO01+rAsW8WsoxM1TlMbhrkhu682E3+CSCINDaZdOEH4wJiEtMhhqEv/03Brb6x2y3gLRtr7i0WKVzLP8WWxXt8WmdlOKlGkWlTVYwYFJq95iTNUEtAkjWrR9wcyp3xnByckVK7X7RKGnB/oqpNSIyimf3BxG3vZovDNw7dyYXwVH7UB4e77VbR5QcgUk1x1kUXcSTHBCpU+pl2fv7umAEdNWdTLVskXVU2b1rNCC6Jx1lolUkvyphyrCENXH5KTEkPMQKlWPNz7n6bz3csebPjywByTTYpikI+hW6Z/aVQNEdXcsoigusJve1bzBYaSLgIXEj68mkT2ZqkvTnt0NbHUQ54FM214gW7XPJ7XVK60k3GI857HzFCpo4AQt6Ee77fkw4xJ0Mt3MDrdSrOZsh/6VrPc2DfsygexYxNzcqyVWpkaoNnhMTfS/SB2Bwsgmn6W/Hkzbqv6L8JskvXS3S0tDIOL3MFbm4kQE4NQAuz6Q5bhqol/LIaqhvUdd3pIY2UfNxYdOEceJDW3dNsJGE+qd5oo5x09f/0w/7Jm+IWYxiJGmUqFUd135UYp0Ut1AAGlSx4kNWBrcdlMrTSvHaixvwyC95pUCOYkPff2xSQxG+P4LTtwufbR0W91Q9VJHNmwmBTi/G5M5RII4v1VadwrXfTCHTIY8NqyiW78PzFcjIYSm98LSX8seF03VryrShZCNI4YQylrXzW3Cb8mM6xczXuDKltCiVrgCOU4RfbO3m0fUBUvje+gFzCtuDfq4VWpUpaAcMYRe+1ca0EBelixcsTw51u3fB1zz5adOcX4o3cSTyurylGX4XMaYt32/yPNcGWkErSNHhVjVAl1O4s7rZWltrzfNr9oUQCx+6njjs+Q9jAnWr0SpFOGV0eX7zo3129PU9S9u4wxMs2HeYbzCGGaYuuZLZRZSBSY3Goq+6jLaR6Yp6OdUw0VdI+JakBFbrPisboZjO/dUVFKzbL5GKhoaqAs2bnHcbGwcrxP9zjzCqgdcMexzZjfLoBLX7vlg1BgVO4yvMhoaZbhbh7huyk9m53lauwk60G+0dcOQBF9dMHtkVOHnhwMuTf1SNxtVN+It8jiKQ2X5zQgJVFnZeL0q+C3ltUXGhS713Grb2ttExpfjdhdUA/0aX+MC8goUJQu/eIi5UgrcKMOuz80ujmnDjQ9p40pZNwwxrl28Hidx5/V0czkcH9ssDfh175okax9h1wvjnTT2jFJKmLrqHrPRKg8p3tJNiB9EXtFkUTdZqkqfSzUYxQKiiDVuAi9X4H3n9mpOh2I703dzT/r06hKdEqanpLj7fCX+vVjW7l8dD8CwWb5uAkLD/ZBsvgYLaTKFQZMQNnfJcbRe3zkWQ+QatwWPX1LcuGl8rHxs/VAYxPfzsFS3DnjJXDSvMfNZ8XncK8WO/q8hGFJzBzcHQsLSknquHG2YFliBdRKES+TG0SmvTBZCk069dckiLPl1wzAy9WmI6a+xv5s/1t8/PYQH+gjMfybn421fpPXJq6wjrbXZ8vuOB2FItT6NQEqa0r/Pi+SxNl0+/B04IkKk9FuYpvJ8WDFhOzM/XK6BKNEAy84NQ6gm4SU+wbJk8Mn4h/HSF2q8aJnQ7Vrdg07jbHXQJcxktFimMTiv1KabtgEhJM95pM+h42AgTLbvt98yrxQxa0/9PQwiWtLQdZtsr/MiT2lUVdhYtZ40MYSxOzxKY+VlfBPWeVybycbirWCTTV4TdaG4PN0P/fqGDMEQr+Li+9Q1XOcHcXyRkgX9MOTMmO6V7jhb3E49CEOYm8LlXPwzaqEXJofHK8uyIqkHLCartP0GZ18fy+GEoa4ObTzF3wqT0zyM2Fv6jARR+FrwDAGs1ikSRbXxdANKZX8cJot9TmNhGIsELTeW78liLA9uAIY41kZM7KAfgKGA6eF0Xl6L4pXszycMLIpa+wFnCHEzOYrt5+yX3wCHqpvA6Qy1djVt1ucnAk8JgZ/sgiH6vzySQvKPxpAXykELXfeUlzr42mBj430AnwPcvwPd5nKGsClT7eaGTwWOIUQkXc6Qab2NAzpH/kvYMJVFcsEQ1KE+PfZTgVcCAlO5zNWEXlbhHdpmrv8QjJjKdTpgiOFgUdrz+52nb8GEKVHhcLsiqkM5PPY/cS2GA1O+3sYeQyyLkZc4/UeuxVAonStQaHbjvgTUg6WfYpa2gFel6OzPECfSiA56h6ECfwRKVkKusu/Sg24DOY4k+3OLt4JSHGLFsX0TG0ysOuuTjz4WeEkTRAata/dQWSTaPMfPBeHDyiOx7i5Rl1GIotjO+bkfADdWOuxS3ls3rUMdrGy9Nt3491HApYXrVUT6PApivuLog4BbMu0T81swhKmz+o1pnwtcz7uGMSAE/Dd4Fl+ythAHDlurfC3v9I1GvP8KcoIOoq3ZpooUeBiKfrhF8yVKg8G5sL1fEZsOuYVgWZr+R2EZKGlhOT5Cv8B1aM/2fwk8MK+lO21Au3rEtnD7TwIfv0MNV7K2ApaS8f3A/quPBj41Am9AsRKmMM9YtJIPmw3xX0MpEkFdmO+7fcNQfkwMBPp0/17CmSpis5mAicfGnZJw1/7aDwI+nwZSgNN+UYMjPfileZ/vOQGUtIlFjIZLGhuA8yDEVW2201f/NCyZ8vgmfaYptvuJGfMfHs+vgPsI2Lrx6BanFLMw/AhxiuNfAHdSWV/PLlaM8dBG+hiZvwB4LxwW9b9dWFWBX2UoePyCfHqgVINRKU2V4L/4Zus0oFW5tpg7Zbxl+1OBG2Cqr2GWvmtFP/K2VTzmyDtu3Pqc/zSItFM1Tmcb1bqGWextFxpFnuSlm38PjXJ41vlqkwQRC/jQFUajfF+vzDuLuRVvvSofDsLm9vWiisstub62+2Oz7nDyEpEAqwkXHwWFCF9nvSGJhSxmjQaMDPzDMBJqMMi7metSyK6++O/RhBXIHqOQdKSsF09ZcE2iv8TgbgDMVowLo8s3Xi89mKPle3+ZkFGwlSapT4tFw2WYHV93pUCi7K+xRt/gCk3LIfOy1Wk9m46mm/ViVdx9qhq2mffZlRc9sFIV035Ao4j3akU0CFWvVon638mBFSzS9qpwwqLn7fMD3H0wSajRyw9pvFt+eqLQEqZLnwa1xnCf0bA4/wWRX3tYJLnHIt5hxEoJmm+Pf0XI0BGml8Pt/DjfDrO/y4P4B//gH/wDHf4f0wGjk+sFCIIAAAAASUVORK5CYII=;" parent="fB_JaEAP2gieiiK0Zqah-26" vertex="1">
          <mxGeometry x="17.5" y="26" width="25" height="25" as="geometry" />
        </mxCell>
        <mxCell id="fB_JaEAP2gieiiK0Zqah-33" value="" style="group" parent="1" vertex="1" connectable="0">
          <mxGeometry x="391" y="306" width="60" height="92" as="geometry" />
        </mxCell>
        <mxCell id="fB_JaEAP2gieiiK0Zqah-25" value="" style="group" parent="fB_JaEAP2gieiiK0Zqah-33" vertex="1" connectable="0">
          <mxGeometry width="60" height="60" as="geometry" />
        </mxCell>
        <mxCell id="fB_JaEAP2gieiiK0Zqah-19" value="" style="strokeWidth=2;html=1;shape=mxgraph.flowchart.database;whiteSpace=wrap;" parent="fB_JaEAP2gieiiK0Zqah-25" vertex="1">
          <mxGeometry width="60" height="60" as="geometry" />
        </mxCell>
        <mxCell id="fB_JaEAP2gieiiK0Zqah-24" value="" style="shape=image;verticalLabelPosition=bottom;labelBackgroundColor=default;verticalAlign=top;aspect=fixed;imageAspect=0;image=data:image/png,iVBORw0KGgoAAAANSUhEUgAAAOEAAADhCAMAAAAJbSJIAAAAflBMVEX///8zZ5EwZZAfXYsqYo4oYY0tZI8jX4wdXIoXWonw9Pf6/P31+Prr8PTg5+13lK/I1N+SqsCftMfT3ebm7PGNpr2En7hLd5ybsMTM2OK4yNbAzdpBcZirvc7b4+p/nLZih6dVfqG0xNNsj61FdJuou8xagqR6lrEAVIUAUYT73WEmAAAcDUlEQVR4nO096ZqjLLMtqGj2zawm0Zhlzv3f4BGoQjSoYPe8k3m+qV+9GENB7RtfX//gH/yDf/C/B6PZejV/h+S0+dMr+wHYnPbFzvOjwA+b4Ac03BX7xei/Wst4PORDm8PxsU+22yRZrh7n4+lwmU3wn5tzEVLGQuIRzwyE+IzSdHv8jViOp+vbfpvlqeeF5Vemuzybb/eP43oz6sF4vDkmTz+OGGOB7wcllD/RKI5j73kt0d3eYxa2YNbA06fxcz/7HehdbvNdGFPm+yHBTeXkw1fKvF2RHC8tn5wckpzRoAWDkCPsvx9ceZjl2zmFvv0vZOz5+OGTPCQpY4ZlaFsb0MDLHuu3j66vHgs6Ptl4DwmDcsvK0w28e55lRZE9714cR+XW6lsUMu/VtqPucNmy2G6NPoto8ZhVJDs5p7FvwMMzclsYUD/NtudFSfb1JYwui8c196hOyn6cve/nEFhk5Xbqq+OCjXE+Kpkp8Js0VIqD+L49TflHx2ePEv0/jMac39I09YKSKQPtWMIg9rLlYtbF0KPLo0gjpl7px8X3cVw8I3UGJQHRmKaldFmuVqvHY7XaL69ZGou1Eg1T4kfkuTzu79piaHx/7W+Ly2Y6Gk0mk9F0sz6utvzTLAxZHBartRVnTS7LtNrykL6m38Jvk1Hc5ZDRMF+eTEKsVAKr1708WJ1TSnZC/EhAve2pZf3j9XmeL91Y6rL0GO67z/bueClYxbBkwli+PHRrhPHlWHJK9CYyQ5omP8MvOpwyijiydOjrZ08K+NHUdpOniyRviIPnaYh1wKEk5em0VdOu53iOIR12jCegORKlR6c1Tm9FDBtM4qf7/o5nh+P+WuS7lL8iTUul8dqf1u/8NpsDjRH2nBhe1APLGGng6P7h8WLulSqe3Reun9xkEdd9NbuC+EIKc2HU2OrLE3jdD52V4zaSnwz27+c35oLwUIrFzXTSerrjwzZfNf42mp3Oy2R7fb2uSVIK1tnU8PK9V1NOOkcHUVic6y7GDZ4mzPEg5pIFWV7fmvHllhTPXUpoHEVRSYppnhXblYmEmjA6bZ8eP53SLvWFaVpaLh53F5pe0TSJ2k3UkPnZWRfL0yKWx8ia+9kJVyq5KKl98y3zygVqdiIRpmlpr5W0ku1PHWgeM2I0TEmphPx70iDmWRa3m1Cl6e1fdaV1llYFiZIva1hG8uBv1Z/GtzxmBvtL4Vp6NrG3PRro7muzpLT9o+UuBRGdn2qy4pS2kaqA0pjRiOviybdHL1sEj/IEw2pnR3uP2jg3pcW2Sw51uTbdMtZr1JZWkLfUD2ayjTo/FMavirpHTyb+yOZ2CM7k4/Sg/vLwmAV6sNaApoVGdSvSj58EFhQHbRkLr+PcSwhIxXhjlBuFFYYpPy0Sq1Vedvb4CQh9dRozl8+SkOYajpOMdj/P8uoYEyn7mQ2hJmJN9KwOsEOymaE6/aPrZ8M402h137M9viYpVlLe0H5xcxGeINvi79sOsWaGSFGPlFiOOLKk4uNTl9MtEJqrhx/yxCN1NG3w5Lse7lAkzh0ptOQPxQuvHiozAwnSio0vYTczliaXEqp7YYWRuMdOPIptj5BUCmcE/WpzBiEoFnlVOmeU9qAYxurQEqkDvG4bNRU0uq99xgl83NOr8+ZUENzVQYzyTs3I92OpiEZ8Jbt2IXjjKJEUtvAWO69N7eh+6AkKCJk6mVHec4qeMmbG4lHCuuhUHGEERuzF/RT8DF50ct+cxrKVrJukfQI5wlOcifMOO7TikeMU5vqOuIEPtunmuwiWYjJDfhr1ohg/4FEpUON2VyrjONGj/rQTMPymAZvzBsEOUby0RvoR4pNOhMH2qwVm3MAiKRCH+yLJHRh49S0mRPDv6CYtehVrAObNmVMhYW0YLjkZo5+17JFhBkATY2ZrivZAmKJD9uhDMYTNnQiCjtpiCzu+sFhu3HjAEe6Q2F3tvPZ14yn26h4G0ubF1x0s33ATcOEbhdLw7C5IKRzh4vtiBkHZD+Nn364RuRnC9UNh2YQVRwopLXc/Bx/ec/8ZGhUQwIZ/bUjPW0HHSYXhmeNHAikmt2KALkQGPv6ImFFvRQtl0fNaEKATHoMkoTElPubEFT7lL+5yhgTTwaffBcpVWXZvOlJmLuxOo0Y8cDZEHnVfpg8hhNOPHmEJEbqbPUo2lE8JMUcPb+iV8OB7RKXqHGCTUJDQ2Q8o+xqQEIhj1k1XsXyqELx2MyAo/kVAc96c2RDN9dnPCVIE/6mfQSvE0gTaCnVhDJ7ehUGjPeYEaCkl7oZCL1BcbyfvxPJwROjDqBBH/Clk152zwEeX5RteYSsQCh75uotAokt10IEpXCP0AzoeA0hNfrDfghwCIdjKX9cOConWFYP5Jttb6Bs43YvzOn1QW6+fljMSKDgto47Xg8wVHqDRu1gJs1vKIHeJDzJ4MhyJHgADtSPACBiKtRup9Mq3hx0qWnYCEGSH38GGHBgsedT+SO0MTZJmK85QsrSzKEVT6HdIUgGEgR22at1DCCOeWzE8MZ4gkcRQuGKIb+z1AAZDAIzezgcgS6W2MOjDkfD/ifzF2WYDl3PaF6P+BsRg2bRazPCApEVD5FvYaRjBcPV/CJNv/z26QgIe4qhNk9WsNkPOW2CICj91/HYCjmpfKuU7gLsoUTCBxijUEMaQGGbyF9dvR7/ix61uHVCcHsyEAsJuLMwxaggKSwylSTN2/XJk7G/i0AcQQTLzENgcI0F/gcE/FBj6MsHorLeBKKY/71fogOkUMy/ALm94IQUhBh//WxjClvUFGgYCVHsGLOyKsIBVBQanIf/0LQw9KQRqphAhYmX+91gzoHGavZL96rFaraC8e2z0fGL5z5PMLb0jCHw4H4QhvhDNbkL4lu+K7XK/3GYes6rjMIDPvMTUf2A070N5bMK8RolpOMNhkqbuVYbMzxO90mlze1oW4teA0KwldG2K5eIapItvMry/ow/Rq2TEI0H0fLyz+TqjrtZOkJ7eXgOwMGAIDAbq0BSmkTbNXf7iaNOANzalhEVJSyvEzbHigRbtyeqDQaKBKJUMFplCbaOdZpc6Jh7g7Zdf6aq9EvXy3jfRhWBrguzLfIaAlAwSxsaS64XmW1zdBCBYgeuH6b0Vig4YBrXKH14sLOrfYf9MDjpoQPmv0LgA6QFr0Rx7MFmBHEabWgXpyfqtoUqOfo0XSXb3eNIive/uEg2DpMG8l/A8WtLcAkNYq6Pqjt6twMlin4n2qFTr35nbkobasvHSi6IojkS/DiGx5gI29gQsY+H3maOlEKeRfpVjyDtqCM/p+flLLIo3RoVMlYO0Oj7N5WbwgUMY0XT+OC3OhSBxDPq+u4joEEo2NMb0ZcoIY1RuGNYZe1GAivdpurunlPoRrtiSvxnoiUUU7PA011xQUfmzQeMDe625zUaYWQyvRZwRKDh1Eu2xxmzHHC2Y4DqbjCeT6WkeYelIZ0RXAWGQsQ7CVK2VZ83QdjJ4iCBbznoxSRNEChIZttXLNGNYnd+9arLJ1F8vyKljq51TGT6mBXbXtMpPv0eDULYIB7W1FEM+K23o9oiWEUM4w02hqXU93DX7BdLfikzRS7oTVZ0lsYKlGxxEYEOp72mbMSTtHWmSHN0wlLQ0C/T1o30kIAB35mwjpEG9zkrOCwqJ4niuRdCmhhXIZQtOa0kAf0GsE70sJ1EDUa5GFY1mHM5ikPMXGwwhcCcztrvbZjI735mOumH75fcI0iMtbAjnBhQyceJDKNZsKmJVpji5E6iW6ghZa6/TUiyl2KGUQn0ORETfI3rIr8LabK+IEt5xTXPaAhxQ02Yh4Y3T5viw85Xpb/NePXhdR11qpXeLK5KUNxUvZ60+yZf0LiThO1mmsOnvJj9Ni+t8p9eS2bwXz/CdoiUzv6cOoJZG+vdBe6em8C5gn5wKhqAuYP2+JBJihxbIWxuLF2y2N/ua5PIdb6oMtYjwftu0oXiA7w2wuWG1HUuSdDHr+gyQnsnxaQKk+N6kEkYg3sI0wOQyNNFilEqy6JbIHUs69mPIaiVLnYBxwWbNJURE36JIxJfqQVpMHcWlUkWgdZA72G2gFzadGIIBYCFpUCo1DSCIvrzZ70iXkLNpRxA2B6rTXEQNeiRdGKLFaxEgQdOxmSMATfamq7FuV35PV3BAqhMo2nCxauArOjHssJrfAFyIpukIG7luqkMwOOTfW0tLBdSsGgcMkXG6pZN9eopqrpCOoWSGZmam5t4bo90VHPUkvwOVAoadkgatRRvawJqt5hmejBii8yvo3+9u0Jvp3pVDpswGQywpasmN1QClXUO1A3U1nEwC9aJrpj3TBhMpBrTwuBOG3WY1mAU2pTpYe9bABRVO/Q0oeWE7ekZPiAoF3Gx79wIkTbeVALtrlYHDBGddt4NSarwBRIt0GruaSapzQwvBPg4PX92NIbCLVTQKZUFdmqJ/UnsDOsnyvHuIFGxndC/sA98oAroxBL/MBkO0/6e1JUDUYFLbebQkrrLlqQfBr5EISzqXHVhFWXF9VsSPiYe5jiJYbbVgD1YSjYUL6Xe2rQkQxAwfsmdEvaKsHcMWm8sIuNSaoY4uhO5j4t9k+XxLoFQH4V5A49PImg8jswfcWDQkqOwCihQUd+28gLj0ii00YQTWtdBQC4itqMUEbADMpu7SaXirZTgdbc26rHkrYCZgZ8vQjc3giKmeRbTuSIB4abd3Cxhalq6q/jL9cfDOtbYE1aQl/tQaZNNBUAWciW1+BiVY944AH9qFvatoi56jANevij9gndQktVKG8oVC50tGtPWCm4UKLUuW2sK29A0D3xtNLb+FN9Cekf3ZrF/OfGGVNEgyy4AbLqabb0HjW5cf43q1fcPwhtokLJ8XwWxjick7gAckf+npw0HAnewu8IcDsPY7keYuVTMjcJ2KhODWSp+YdaegEca5Ftu38QM8pct7or2Q/7LvVQEdpCkHIHTFPWijyXhEbDkrKtELUO0whM2b9ZTPSkFobylh8qryJXxsT8Mvkg9IM6k91N0AIUBVssqKEbFQoXM/XELCABg1U8lxtJh39blJUktFtrOwJAmAg2YXF26L4NZgQLoA91kZCXWzjVDwBcWRqkkA/SCTbFJI2bVpgVnazWFI+C75EBSVW3izCj/I/AS4WNIk7fWbKlhpKSi74igrDCHD59SbioeIokWFGYVygDgwqIqd/dQ8mYLK5C9W/RORDZWCVHBr+0NfH9QWmpMyiQZKW/rdlqpCAkcKzSErfYERoq5n0Wt3KxDAjYZAPmLIT41A8wu8saX8wgyyOEqaDyObKkVgsVmXlISMmVM6xKscPjnBAjHkkgZj6KDtWxrwzXDUQxlziz0Hpu3S+MhBhpxgJ6hUmcjSwJGK5FOsHyGhTnNaR4LaAkDXgm9QIHS0BGEXqPO0BfRwj1qCmhMWHqE0B6y1/Ze2DKAPuz4f+bkuc2WqrccFQpxEwSlTs9pwzpOwBrB72RoeeveXza5D1Ve7qEFnZUBrmxpFwZTxdKHq0KRZ7nqEMnaNVpYN56C32r5MsKgG9O6poqFyq2NVQ4oz76RV7rteKiDTyOAL2MTG0H1qI1OUF6chjV9ofR4oavUlw3Fyl0Fc+IX+hQOZQoho2hImh2KQYd2JKuz2pLgiHzoPIHtkrnnuBBG8VgLeJh2GQZWWZ+V/Z/bD52svx46u/wOqCiIwYA4DdKEEWdQAzDO1WJfyAoyHhEbugKlFAnC8FvDCKcZwxU76GEPuEJBmDSzMxtBCE8o0IIr4ekBsADQOqfgFFCOdCrfpugjCHEUytVH6KvVqYDU19GRwgynRLZbpLyAYmU8jqYtFWoFYJxT5WFXboT9uoGkGZolz+7SCWmd2gsr+0RhD6gYiDqv8AYulKQPyLcWGCu07Q+qC6hAnSLMjyYR2IcR3kOYJxLKtYt9qL0+NUWZKznxnUmRVf/AAgxlGZET2rn0dJI2j2Wu1ihAbng71maPoBHyrU18NJZ3g/GbpNXWV6fWA2HGUEVbb7+cYR6gND0Yy+t5wJTXNb4M5UCnSjC1cdgDxFKlq7FioIqXxNlYnFjjonK6XNzoKZRSw6geYHm77a5EV17P1gP1c7+OzW141kPPr8sQZ5WAtT787bCGutRRCgt9ff002h/N2xxuHmB/6Pr8DxpI1hSzGIKSlKqOaVD9cvTjwCfp3A0b4NV+uNzbOwTzKUwZNURWQqKN1Ud8lmVWF3mLLlstYty9Gi2WW/nLQON0QVr0X1dxC87ICu9CiDNkBF9l1mFTjOBXAV01/UTqkF1gHbeC6GTPCQaKY2WAoKBMloVXVAvFaPdHpYrHY5x1XD/RCSHc3PJmk2XFL/IBRku7yuy/Jt3+q9xc6GDjc1WYmD+0TY5disMpgO01+rAsW8WsoxM1TlMbhrkhu682E3+CSCINDaZdOEH4wJiEtMhhqEv/03Brb6x2y3gLRtr7i0WKVzLP8WWxXt8WmdlOKlGkWlTVYwYFJq95iTNUEtAkjWrR9wcyp3xnByckVK7X7RKGnB/oqpNSIyimf3BxG3vZovDNw7dyYXwVH7UB4e77VbR5QcgUk1x1kUXcSTHBCpU+pl2fv7umAEdNWdTLVskXVU2b1rNCC6Jx1lolUkvyphyrCENXH5KTEkPMQKlWPNz7n6bz3csebPjywByTTYpikI+hW6Z/aVQNEdXcsoigusJve1bzBYaSLgIXEj68mkT2ZqkvTnt0NbHUQ54FM214gW7XPJ7XVK60k3GI857HzFCpo4AQt6Ee77fkw4xJ0Mt3MDrdSrOZsh/6VrPc2DfsygexYxNzcqyVWpkaoNnhMTfS/SB2Bwsgmn6W/Hkzbqv6L8JskvXS3S0tDIOL3MFbm4kQE4NQAuz6Q5bhqol/LIaqhvUdd3pIY2UfNxYdOEceJDW3dNsJGE+qd5oo5x09f/0w/7Jm+IWYxiJGmUqFUd135UYp0Ut1AAGlSx4kNWBrcdlMrTSvHaixvwyC95pUCOYkPff2xSQxG+P4LTtwufbR0W91Q9VJHNmwmBTi/G5M5RII4v1VadwrXfTCHTIY8NqyiW78PzFcjIYSm98LSX8seF03VryrShZCNI4YQylrXzW3Cb8mM6xczXuDKltCiVrgCOU4RfbO3m0fUBUvje+gFzCtuDfq4VWpUpaAcMYRe+1ca0EBelixcsTw51u3fB1zz5adOcX4o3cSTyurylGX4XMaYt32/yPNcGWkErSNHhVjVAl1O4s7rZWltrzfNr9oUQCx+6njjs+Q9jAnWr0SpFOGV0eX7zo3129PU9S9u4wxMs2HeYbzCGGaYuuZLZRZSBSY3Goq+6jLaR6Yp6OdUw0VdI+JakBFbrPisboZjO/dUVFKzbL5GKhoaqAs2bnHcbGwcrxP9zjzCqgdcMexzZjfLoBLX7vlg1BgVO4yvMhoaZbhbh7huyk9m53lauwk60G+0dcOQBF9dMHtkVOHnhwMuTf1SNxtVN+It8jiKQ2X5zQgJVFnZeL0q+C3ltUXGhS713Grb2ttExpfjdhdUA/0aX+MC8goUJQu/eIi5UgrcKMOuz80ujmnDjQ9p40pZNwwxrl28Hidx5/V0czkcH9ssDfh175okax9h1wvjnTT2jFJKmLrqHrPRKg8p3tJNiB9EXtFkUTdZqkqfSzUYxQKiiDVuAi9X4H3n9mpOh2I703dzT/r06hKdEqanpLj7fCX+vVjW7l8dD8CwWb5uAkLD/ZBsvgYLaTKFQZMQNnfJcbRe3zkWQ+QatwWPX1LcuGl8rHxs/VAYxPfzsFS3DnjJXDSvMfNZ8XncK8WO/q8hGFJzBzcHQsLSknquHG2YFliBdRKES+TG0SmvTBZCk069dckiLPl1wzAy9WmI6a+xv5s/1t8/PYQH+gjMfybn421fpPXJq6wjrbXZ8vuOB2FItT6NQEqa0r/Pi+SxNl0+/B04IkKk9FuYpvJ8WDFhOzM/XK6BKNEAy84NQ6gm4SU+wbJk8Mn4h/HSF2q8aJnQ7Vrdg07jbHXQJcxktFimMTiv1KabtgEhJM95pM+h42AgTLbvt98yrxQxa0/9PQwiWtLQdZtsr/MiT2lUVdhYtZ40MYSxOzxKY+VlfBPWeVybycbirWCTTV4TdaG4PN0P/fqGDMEQr+Li+9Q1XOcHcXyRkgX9MOTMmO6V7jhb3E49CEOYm8LlXPwzaqEXJofHK8uyIqkHLCartP0GZ18fy+GEoa4ObTzF3wqT0zyM2Fv6jARR+FrwDAGs1ikSRbXxdANKZX8cJot9TmNhGIsELTeW78liLA9uAIY41kZM7KAfgKGA6eF0Xl6L4pXszycMLIpa+wFnCHEzOYrt5+yX3wCHqpvA6Qy1djVt1ucnAk8JgZ/sgiH6vzySQvKPxpAXykELXfeUlzr42mBj430AnwPcvwPd5nKGsClT7eaGTwWOIUQkXc6Qab2NAzpH/kvYMJVFcsEQ1KE+PfZTgVcCAlO5zNWEXlbhHdpmrv8QjJjKdTpgiOFgUdrz+52nb8GEKVHhcLsiqkM5PPY/cS2GA1O+3sYeQyyLkZc4/UeuxVAonStQaHbjvgTUg6WfYpa2gFel6OzPECfSiA56h6ECfwRKVkKusu/Sg24DOY4k+3OLt4JSHGLFsX0TG0ysOuuTjz4WeEkTRAata/dQWSTaPMfPBeHDyiOx7i5Rl1GIotjO+bkfADdWOuxS3ls3rUMdrGy9Nt3491HApYXrVUT6PApivuLog4BbMu0T81swhKmz+o1pnwtcz7uGMSAE/Dd4Fl+ythAHDlurfC3v9I1GvP8KcoIOoq3ZpooUeBiKfrhF8yVKg8G5sL1fEZsOuYVgWZr+R2EZKGlhOT5Cv8B1aM/2fwk8MK+lO21Au3rEtnD7TwIfv0MNV7K2ApaS8f3A/quPBj41Am9AsRKmMM9YtJIPmw3xX0MpEkFdmO+7fcNQfkwMBPp0/17CmSpis5mAicfGnZJw1/7aDwI+nwZSgNN+UYMjPfileZ/vOQGUtIlFjIZLGhuA8yDEVW2201f/NCyZ8vgmfaYptvuJGfMfHs+vgPsI2Lrx6BanFLMw/AhxiuNfAHdSWV/PLlaM8dBG+hiZvwB4LxwW9b9dWFWBX2UoePyCfHqgVINRKU2V4L/4Zus0oFW5tpg7Zbxl+1OBG2Cqr2GWvmtFP/K2VTzmyDtu3Pqc/zSItFM1Tmcb1bqGWextFxpFnuSlm38PjXJ41vlqkwQRC/jQFUajfF+vzDuLuRVvvSofDsLm9vWiisstub62+2Oz7nDyEpEAqwkXHwWFCF9nvSGJhSxmjQaMDPzDMBJqMMi7metSyK6++O/RhBXIHqOQdKSsF09ZcE2iv8TgbgDMVowLo8s3Xi89mKPle3+ZkFGwlSapT4tFw2WYHV93pUCi7K+xRt/gCk3LIfOy1Wk9m46mm/ViVdx9qhq2mffZlRc9sFIV035Ao4j3akU0CFWvVon638mBFSzS9qpwwqLn7fMD3H0wSajRyw9pvFt+eqLQEqZLnwa1xnCf0bA4/wWRX3tYJLnHIt5hxEoJmm+Pf0XI0BGml8Pt/DjfDrO/y4P4B//gH/wDHf4f0wGjk+sFCIIAAAAASUVORK5CYII=;" parent="fB_JaEAP2gieiiK0Zqah-25" vertex="1">
          <mxGeometry x="17.5" y="26" width="25" height="25" as="geometry" />
        </mxCell>
        <mxCell id="fB_JaEAP2gieiiK0Zqah-27" value="Vector DB" style="text;html=1;align=center;verticalAlign=middle;whiteSpace=wrap;rounded=0;" parent="fB_JaEAP2gieiiK0Zqah-33" vertex="1">
          <mxGeometry y="62" width="60" height="30" as="geometry" />
        </mxCell>
        <mxCell id="fB_JaEAP2gieiiK0Zqah-34" value="" style="group" parent="1" vertex="1" connectable="0">
          <mxGeometry x="139" y="308" width="60" height="90" as="geometry" />
        </mxCell>
        <mxCell id="fB_JaEAP2gieiiK0Zqah-29" value="Data Source" style="text;html=1;align=center;verticalAlign=middle;whiteSpace=wrap;rounded=0;" parent="fB_JaEAP2gieiiK0Zqah-34" vertex="1">
          <mxGeometry y="61" width="60" height="30" as="geometry" />
        </mxCell>
        <mxCell id="fB_JaEAP2gieiiK0Zqah-30" value="" style="group" parent="fB_JaEAP2gieiiK0Zqah-34" vertex="1" connectable="0">
          <mxGeometry width="60" height="60" as="geometry" />
        </mxCell>
        <mxCell id="fB_JaEAP2gieiiK0Zqah-31" value="" style="strokeWidth=2;html=1;shape=mxgraph.flowchart.database;whiteSpace=wrap;" parent="fB_JaEAP2gieiiK0Zqah-30" vertex="1">
          <mxGeometry width="60" height="60" as="geometry" />
        </mxCell>
        <mxCell id="fB_JaEAP2gieiiK0Zqah-32" value="" style="shape=image;verticalLabelPosition=bottom;labelBackgroundColor=default;verticalAlign=top;aspect=fixed;imageAspect=0;image=data:image/png,iVBORw0KGgoAAAANSUhEUgAAAOEAAADhCAMAAAAJbSJIAAAAflBMVEX///8zZ5EwZZAfXYsqYo4oYY0tZI8jX4wdXIoXWonw9Pf6/P31+Prr8PTg5+13lK/I1N+SqsCftMfT3ebm7PGNpr2En7hLd5ybsMTM2OK4yNbAzdpBcZirvc7b4+p/nLZih6dVfqG0xNNsj61FdJuou8xagqR6lrEAVIUAUYT73WEmAAAcDUlEQVR4nO096ZqjLLMtqGj2zawm0Zhlzv3f4BGoQjSoYPe8k3m+qV+9GENB7RtfX//gH/yDf/C/B6PZejV/h+S0+dMr+wHYnPbFzvOjwA+b4Ac03BX7xei/Wst4PORDm8PxsU+22yRZrh7n4+lwmU3wn5tzEVLGQuIRzwyE+IzSdHv8jViOp+vbfpvlqeeF5Vemuzybb/eP43oz6sF4vDkmTz+OGGOB7wcllD/RKI5j73kt0d3eYxa2YNbA06fxcz/7HehdbvNdGFPm+yHBTeXkw1fKvF2RHC8tn5wckpzRoAWDkCPsvx9ceZjl2zmFvv0vZOz5+OGTPCQpY4ZlaFsb0MDLHuu3j66vHgs6Ptl4DwmDcsvK0w28e55lRZE9714cR+XW6lsUMu/VtqPucNmy2G6NPoto8ZhVJDs5p7FvwMMzclsYUD/NtudFSfb1JYwui8c196hOyn6cve/nEFhk5Xbqq+OCjXE+Kpkp8Js0VIqD+L49TflHx2ePEv0/jMac39I09YKSKQPtWMIg9rLlYtbF0KPLo0gjpl7px8X3cVw8I3UGJQHRmKaldFmuVqvHY7XaL69ZGou1Eg1T4kfkuTzu79piaHx/7W+Ly2Y6Gk0mk9F0sz6utvzTLAxZHBartRVnTS7LtNrykL6m38Jvk1Hc5ZDRMF+eTEKsVAKr1708WJ1TSnZC/EhAve2pZf3j9XmeL91Y6rL0GO67z/bueClYxbBkwli+PHRrhPHlWHJK9CYyQ5omP8MvOpwyijiydOjrZ08K+NHUdpOniyRviIPnaYh1wKEk5em0VdOu53iOIR12jCegORKlR6c1Tm9FDBtM4qf7/o5nh+P+WuS7lL8iTUul8dqf1u/8NpsDjRH2nBhe1APLGGng6P7h8WLulSqe3Reun9xkEdd9NbuC+EIKc2HU2OrLE3jdD52V4zaSnwz27+c35oLwUIrFzXTSerrjwzZfNf42mp3Oy2R7fb2uSVIK1tnU8PK9V1NOOkcHUVic6y7GDZ4mzPEg5pIFWV7fmvHllhTPXUpoHEVRSYppnhXblYmEmjA6bZ8eP53SLvWFaVpaLh53F5pe0TSJ2k3UkPnZWRfL0yKWx8ia+9kJVyq5KKl98y3zygVqdiIRpmlpr5W0ku1PHWgeM2I0TEmphPx70iDmWRa3m1Cl6e1fdaV1llYFiZIva1hG8uBv1Z/GtzxmBvtL4Vp6NrG3PRro7muzpLT9o+UuBRGdn2qy4pS2kaqA0pjRiOviybdHL1sEj/IEw2pnR3uP2jg3pcW2Sw51uTbdMtZr1JZWkLfUD2ayjTo/FMavirpHTyb+yOZ2CM7k4/Sg/vLwmAV6sNaApoVGdSvSj58EFhQHbRkLr+PcSwhIxXhjlBuFFYYpPy0Sq1Vedvb4CQh9dRozl8+SkOYajpOMdj/P8uoYEyn7mQ2hJmJN9KwOsEOymaE6/aPrZ8M402h137M9viYpVlLe0H5xcxGeINvi79sOsWaGSFGPlFiOOLKk4uNTl9MtEJqrhx/yxCN1NG3w5Lse7lAkzh0ptOQPxQuvHiozAwnSio0vYTczliaXEqp7YYWRuMdOPIptj5BUCmcE/WpzBiEoFnlVOmeU9qAYxurQEqkDvG4bNRU0uq99xgl83NOr8+ZUENzVQYzyTs3I92OpiEZ8Jbt2IXjjKJEUtvAWO69N7eh+6AkKCJk6mVHec4qeMmbG4lHCuuhUHGEERuzF/RT8DF50ct+cxrKVrJukfQI5wlOcifMOO7TikeMU5vqOuIEPtunmuwiWYjJDfhr1ohg/4FEpUON2VyrjONGj/rQTMPymAZvzBsEOUby0RvoR4pNOhMH2qwVm3MAiKRCH+yLJHRh49S0mRPDv6CYtehVrAObNmVMhYW0YLjkZo5+17JFhBkATY2ZrivZAmKJD9uhDMYTNnQiCjtpiCzu+sFhu3HjAEe6Q2F3tvPZ14yn26h4G0ubF1x0s33ATcOEbhdLw7C5IKRzh4vtiBkHZD+Nn364RuRnC9UNh2YQVRwopLXc/Bx/ec/8ZGhUQwIZ/bUjPW0HHSYXhmeNHAikmt2KALkQGPv6ImFFvRQtl0fNaEKATHoMkoTElPubEFT7lL+5yhgTTwaffBcpVWXZvOlJmLuxOo0Y8cDZEHnVfpg8hhNOPHmEJEbqbPUo2lE8JMUcPb+iV8OB7RKXqHGCTUJDQ2Q8o+xqQEIhj1k1XsXyqELx2MyAo/kVAc96c2RDN9dnPCVIE/6mfQSvE0gTaCnVhDJ7ehUGjPeYEaCkl7oZCL1BcbyfvxPJwROjDqBBH/Clk152zwEeX5RteYSsQCh75uotAokt10IEpXCP0AzoeA0hNfrDfghwCIdjKX9cOConWFYP5Jttb6Bs43YvzOn1QW6+fljMSKDgto47Xg8wVHqDRu1gJs1vKIHeJDzJ4MhyJHgADtSPACBiKtRup9Mq3hx0qWnYCEGSH38GGHBgsedT+SO0MTZJmK85QsrSzKEVT6HdIUgGEgR22at1DCCOeWzE8MZ4gkcRQuGKIb+z1AAZDAIzezgcgS6W2MOjDkfD/ifzF2WYDl3PaF6P+BsRg2bRazPCApEVD5FvYaRjBcPV/CJNv/z26QgIe4qhNk9WsNkPOW2CICj91/HYCjmpfKuU7gLsoUTCBxijUEMaQGGbyF9dvR7/ix61uHVCcHsyEAsJuLMwxaggKSwylSTN2/XJk7G/i0AcQQTLzENgcI0F/gcE/FBj6MsHorLeBKKY/71fogOkUMy/ALm94IQUhBh//WxjClvUFGgYCVHsGLOyKsIBVBQanIf/0LQw9KQRqphAhYmX+91gzoHGavZL96rFaraC8e2z0fGL5z5PMLb0jCHw4H4QhvhDNbkL4lu+K7XK/3GYes6rjMIDPvMTUf2A070N5bMK8RolpOMNhkqbuVYbMzxO90mlze1oW4teA0KwldG2K5eIapItvMry/ow/Rq2TEI0H0fLyz+TqjrtZOkJ7eXgOwMGAIDAbq0BSmkTbNXf7iaNOANzalhEVJSyvEzbHigRbtyeqDQaKBKJUMFplCbaOdZpc6Jh7g7Zdf6aq9EvXy3jfRhWBrguzLfIaAlAwSxsaS64XmW1zdBCBYgeuH6b0Vig4YBrXKH14sLOrfYf9MDjpoQPmv0LgA6QFr0Rx7MFmBHEabWgXpyfqtoUqOfo0XSXb3eNIive/uEg2DpMG8l/A8WtLcAkNYq6Pqjt6twMlin4n2qFTr35nbkobasvHSi6IojkS/DiGx5gI29gQsY+H3maOlEKeRfpVjyDtqCM/p+flLLIo3RoVMlYO0Oj7N5WbwgUMY0XT+OC3OhSBxDPq+u4joEEo2NMb0ZcoIY1RuGNYZe1GAivdpurunlPoRrtiSvxnoiUUU7PA011xQUfmzQeMDe625zUaYWQyvRZwRKDh1Eu2xxmzHHC2Y4DqbjCeT6WkeYelIZ0RXAWGQsQ7CVK2VZ83QdjJ4iCBbznoxSRNEChIZttXLNGNYnd+9arLJ1F8vyKljq51TGT6mBXbXtMpPv0eDULYIB7W1FEM+K23o9oiWEUM4w02hqXU93DX7BdLfikzRS7oTVZ0lsYKlGxxEYEOp72mbMSTtHWmSHN0wlLQ0C/T1o30kIAB35mwjpEG9zkrOCwqJ4niuRdCmhhXIZQtOa0kAf0GsE70sJ1EDUa5GFY1mHM5ikPMXGwwhcCcztrvbZjI735mOumH75fcI0iMtbAjnBhQyceJDKNZsKmJVpji5E6iW6ghZa6/TUiyl2KGUQn0ORETfI3rIr8LabK+IEt5xTXPaAhxQ02Yh4Y3T5viw85Xpb/NePXhdR11qpXeLK5KUNxUvZ60+yZf0LiThO1mmsOnvJj9Ni+t8p9eS2bwXz/CdoiUzv6cOoJZG+vdBe6em8C5gn5wKhqAuYP2+JBJihxbIWxuLF2y2N/ua5PIdb6oMtYjwftu0oXiA7w2wuWG1HUuSdDHr+gyQnsnxaQKk+N6kEkYg3sI0wOQyNNFilEqy6JbIHUs69mPIaiVLnYBxwWbNJURE36JIxJfqQVpMHcWlUkWgdZA72G2gFzadGIIBYCFpUCo1DSCIvrzZ70iXkLNpRxA2B6rTXEQNeiRdGKLFaxEgQdOxmSMATfamq7FuV35PV3BAqhMo2nCxauArOjHssJrfAFyIpukIG7luqkMwOOTfW0tLBdSsGgcMkXG6pZN9eopqrpCOoWSGZmam5t4bo90VHPUkvwOVAoadkgatRRvawJqt5hmejBii8yvo3+9u0Jvp3pVDpswGQywpasmN1QClXUO1A3U1nEwC9aJrpj3TBhMpBrTwuBOG3WY1mAU2pTpYe9bABRVO/Q0oeWE7ekZPiAoF3Gx79wIkTbeVALtrlYHDBGddt4NSarwBRIt0GruaSapzQwvBPg4PX92NIbCLVTQKZUFdmqJ/UnsDOsnyvHuIFGxndC/sA98oAroxBL/MBkO0/6e1JUDUYFLbebQkrrLlqQfBr5EISzqXHVhFWXF9VsSPiYe5jiJYbbVgD1YSjYUL6Xe2rQkQxAwfsmdEvaKsHcMWm8sIuNSaoY4uhO5j4t9k+XxLoFQH4V5A49PImg8jswfcWDQkqOwCihQUd+28gLj0ii00YQTWtdBQC4itqMUEbADMpu7SaXirZTgdbc26rHkrYCZgZ8vQjc3giKmeRbTuSIB4abd3Cxhalq6q/jL9cfDOtbYE1aQl/tQaZNNBUAWciW1+BiVY944AH9qFvatoi56jANevij9gndQktVKG8oVC50tGtPWCm4UKLUuW2sK29A0D3xtNLb+FN9Cekf3ZrF/OfGGVNEgyy4AbLqabb0HjW5cf43q1fcPwhtokLJ8XwWxjick7gAckf+npw0HAnewu8IcDsPY7keYuVTMjcJ2KhODWSp+YdaegEca5Ftu38QM8pct7or2Q/7LvVQEdpCkHIHTFPWijyXhEbDkrKtELUO0whM2b9ZTPSkFobylh8qryJXxsT8Mvkg9IM6k91N0AIUBVssqKEbFQoXM/XELCABg1U8lxtJh39blJUktFtrOwJAmAg2YXF26L4NZgQLoA91kZCXWzjVDwBcWRqkkA/SCTbFJI2bVpgVnazWFI+C75EBSVW3izCj/I/AS4WNIk7fWbKlhpKSi74igrDCHD59SbioeIokWFGYVygDgwqIqd/dQ8mYLK5C9W/RORDZWCVHBr+0NfH9QWmpMyiQZKW/rdlqpCAkcKzSErfYERoq5n0Wt3KxDAjYZAPmLIT41A8wu8saX8wgyyOEqaDyObKkVgsVmXlISMmVM6xKscPjnBAjHkkgZj6KDtWxrwzXDUQxlziz0Hpu3S+MhBhpxgJ6hUmcjSwJGK5FOsHyGhTnNaR4LaAkDXgm9QIHS0BGEXqPO0BfRwj1qCmhMWHqE0B6y1/Ze2DKAPuz4f+bkuc2WqrccFQpxEwSlTs9pwzpOwBrB72RoeeveXza5D1Ve7qEFnZUBrmxpFwZTxdKHq0KRZ7nqEMnaNVpYN56C32r5MsKgG9O6poqFyq2NVQ4oz76RV7rteKiDTyOAL2MTG0H1qI1OUF6chjV9ofR4oavUlw3Fyl0Fc+IX+hQOZQoho2hImh2KQYd2JKuz2pLgiHzoPIHtkrnnuBBG8VgLeJh2GQZWWZ+V/Z/bD52svx46u/wOqCiIwYA4DdKEEWdQAzDO1WJfyAoyHhEbugKlFAnC8FvDCKcZwxU76GEPuEJBmDSzMxtBCE8o0IIr4ekBsADQOqfgFFCOdCrfpugjCHEUytVH6KvVqYDU19GRwgynRLZbpLyAYmU8jqYtFWoFYJxT5WFXboT9uoGkGZolz+7SCWmd2gsr+0RhD6gYiDqv8AYulKQPyLcWGCu07Q+qC6hAnSLMjyYR2IcR3kOYJxLKtYt9qL0+NUWZKznxnUmRVf/AAgxlGZET2rn0dJI2j2Wu1ihAbng71maPoBHyrU18NJZ3g/GbpNXWV6fWA2HGUEVbb7+cYR6gND0Yy+t5wJTXNb4M5UCnSjC1cdgDxFKlq7FioIqXxNlYnFjjonK6XNzoKZRSw6geYHm77a5EV17P1gP1c7+OzW141kPPr8sQZ5WAtT787bCGutRRCgt9ff002h/N2xxuHmB/6Pr8DxpI1hSzGIKSlKqOaVD9cvTjwCfp3A0b4NV+uNzbOwTzKUwZNURWQqKN1Ud8lmVWF3mLLlstYty9Gi2WW/nLQON0QVr0X1dxC87ICu9CiDNkBF9l1mFTjOBXAV01/UTqkF1gHbeC6GTPCQaKY2WAoKBMloVXVAvFaPdHpYrHY5x1XD/RCSHc3PJmk2XFL/IBRku7yuy/Jt3+q9xc6GDjc1WYmD+0TY5disMpgO01+rAsW8WsoxM1TlMbhrkhu682E3+CSCINDaZdOEH4wJiEtMhhqEv/03Brb6x2y3gLRtr7i0WKVzLP8WWxXt8WmdlOKlGkWlTVYwYFJq95iTNUEtAkjWrR9wcyp3xnByckVK7X7RKGnB/oqpNSIyimf3BxG3vZovDNw7dyYXwVH7UB4e77VbR5QcgUk1x1kUXcSTHBCpU+pl2fv7umAEdNWdTLVskXVU2b1rNCC6Jx1lolUkvyphyrCENXH5KTEkPMQKlWPNz7n6bz3csebPjywByTTYpikI+hW6Z/aVQNEdXcsoigusJve1bzBYaSLgIXEj68mkT2ZqkvTnt0NbHUQ54FM214gW7XPJ7XVK60k3GI857HzFCpo4AQt6Ee77fkw4xJ0Mt3MDrdSrOZsh/6VrPc2DfsygexYxNzcqyVWpkaoNnhMTfS/SB2Bwsgmn6W/Hkzbqv6L8JskvXS3S0tDIOL3MFbm4kQE4NQAuz6Q5bhqol/LIaqhvUdd3pIY2UfNxYdOEceJDW3dNsJGE+qd5oo5x09f/0w/7Jm+IWYxiJGmUqFUd135UYp0Ut1AAGlSx4kNWBrcdlMrTSvHaixvwyC95pUCOYkPff2xSQxG+P4LTtwufbR0W91Q9VJHNmwmBTi/G5M5RII4v1VadwrXfTCHTIY8NqyiW78PzFcjIYSm98LSX8seF03VryrShZCNI4YQylrXzW3Cb8mM6xczXuDKltCiVrgCOU4RfbO3m0fUBUvje+gFzCtuDfq4VWpUpaAcMYRe+1ca0EBelixcsTw51u3fB1zz5adOcX4o3cSTyurylGX4XMaYt32/yPNcGWkErSNHhVjVAl1O4s7rZWltrzfNr9oUQCx+6njjs+Q9jAnWr0SpFOGV0eX7zo3129PU9S9u4wxMs2HeYbzCGGaYuuZLZRZSBSY3Goq+6jLaR6Yp6OdUw0VdI+JakBFbrPisboZjO/dUVFKzbL5GKhoaqAs2bnHcbGwcrxP9zjzCqgdcMexzZjfLoBLX7vlg1BgVO4yvMhoaZbhbh7huyk9m53lauwk60G+0dcOQBF9dMHtkVOHnhwMuTf1SNxtVN+It8jiKQ2X5zQgJVFnZeL0q+C3ltUXGhS713Grb2ttExpfjdhdUA/0aX+MC8goUJQu/eIi5UgrcKMOuz80ujmnDjQ9p40pZNwwxrl28Hidx5/V0czkcH9ssDfh175okax9h1wvjnTT2jFJKmLrqHrPRKg8p3tJNiB9EXtFkUTdZqkqfSzUYxQKiiDVuAi9X4H3n9mpOh2I703dzT/r06hKdEqanpLj7fCX+vVjW7l8dD8CwWb5uAkLD/ZBsvgYLaTKFQZMQNnfJcbRe3zkWQ+QatwWPX1LcuGl8rHxs/VAYxPfzsFS3DnjJXDSvMfNZ8XncK8WO/q8hGFJzBzcHQsLSknquHG2YFliBdRKES+TG0SmvTBZCk069dckiLPl1wzAy9WmI6a+xv5s/1t8/PYQH+gjMfybn421fpPXJq6wjrbXZ8vuOB2FItT6NQEqa0r/Pi+SxNl0+/B04IkKk9FuYpvJ8WDFhOzM/XK6BKNEAy84NQ6gm4SU+wbJk8Mn4h/HSF2q8aJnQ7Vrdg07jbHXQJcxktFimMTiv1KabtgEhJM95pM+h42AgTLbvt98yrxQxa0/9PQwiWtLQdZtsr/MiT2lUVdhYtZ40MYSxOzxKY+VlfBPWeVybycbirWCTTV4TdaG4PN0P/fqGDMEQr+Li+9Q1XOcHcXyRkgX9MOTMmO6V7jhb3E49CEOYm8LlXPwzaqEXJofHK8uyIqkHLCartP0GZ18fy+GEoa4ObTzF3wqT0zyM2Fv6jARR+FrwDAGs1ikSRbXxdANKZX8cJot9TmNhGIsELTeW78liLA9uAIY41kZM7KAfgKGA6eF0Xl6L4pXszycMLIpa+wFnCHEzOYrt5+yX3wCHqpvA6Qy1djVt1ucnAk8JgZ/sgiH6vzySQvKPxpAXykELXfeUlzr42mBj430AnwPcvwPd5nKGsClT7eaGTwWOIUQkXc6Qab2NAzpH/kvYMJVFcsEQ1KE+PfZTgVcCAlO5zNWEXlbhHdpmrv8QjJjKdTpgiOFgUdrz+52nb8GEKVHhcLsiqkM5PPY/cS2GA1O+3sYeQyyLkZc4/UeuxVAonStQaHbjvgTUg6WfYpa2gFel6OzPECfSiA56h6ECfwRKVkKusu/Sg24DOY4k+3OLt4JSHGLFsX0TG0ysOuuTjz4WeEkTRAata/dQWSTaPMfPBeHDyiOx7i5Rl1GIotjO+bkfADdWOuxS3ls3rUMdrGy9Nt3491HApYXrVUT6PApivuLog4BbMu0T81swhKmz+o1pnwtcz7uGMSAE/Dd4Fl+ythAHDlurfC3v9I1GvP8KcoIOoq3ZpooUeBiKfrhF8yVKg8G5sL1fEZsOuYVgWZr+R2EZKGlhOT5Cv8B1aM/2fwk8MK+lO21Au3rEtnD7TwIfv0MNV7K2ApaS8f3A/quPBj41Am9AsRKmMM9YtJIPmw3xX0MpEkFdmO+7fcNQfkwMBPp0/17CmSpis5mAicfGnZJw1/7aDwI+nwZSgNN+UYMjPfileZ/vOQGUtIlFjIZLGhuA8yDEVW2201f/NCyZ8vgmfaYptvuJGfMfHs+vgPsI2Lrx6BanFLMw/AhxiuNfAHdSWV/PLlaM8dBG+hiZvwB4LxwW9b9dWFWBX2UoePyCfHqgVINRKU2V4L/4Zus0oFW5tpg7Zbxl+1OBG2Cqr2GWvmtFP/K2VTzmyDtu3Pqc/zSItFM1Tmcb1bqGWextFxpFnuSlm38PjXJ41vlqkwQRC/jQFUajfF+vzDuLuRVvvSofDsLm9vWiisstub62+2Oz7nDyEpEAqwkXHwWFCF9nvSGJhSxmjQaMDPzDMBJqMMi7metSyK6++O/RhBXIHqOQdKSsF09ZcE2iv8TgbgDMVowLo8s3Xi89mKPle3+ZkFGwlSapT4tFw2WYHV93pUCi7K+xRt/gCk3LIfOy1Wk9m46mm/ViVdx9qhq2mffZlRc9sFIV035Ao4j3akU0CFWvVon638mBFSzS9qpwwqLn7fMD3H0wSajRyw9pvFt+eqLQEqZLnwa1xnCf0bA4/wWRX3tYJLnHIt5hxEoJmm+Pf0XI0BGml8Pt/DjfDrO/y4P4B//gH/wDHf4f0wGjk+sFCIIAAAAASUVORK5CYII=;" parent="fB_JaEAP2gieiiK0Zqah-30" vertex="1">
          <mxGeometry x="17.5" y="26" width="25" height="25" as="geometry" />
        </mxCell>
        <mxCell id="fB_JaEAP2gieiiK0Zqah-36" value="" style="group" parent="1" vertex="1" connectable="0">
          <mxGeometry x="230" y="304.5" width="129" height="57" as="geometry" />
        </mxCell>
        <mxCell id="fB_JaEAP2gieiiK0Zqah-35" value="Vector Embedding" style="rounded=0;whiteSpace=wrap;html=1;" parent="fB_JaEAP2gieiiK0Zqah-36" vertex="1">
          <mxGeometry x="9" y="17" width="120" height="33" as="geometry" />
        </mxCell>
        <mxCell id="fB_JaEAP2gieiiK0Zqah-28" value="" style="shape=image;verticalLabelPosition=bottom;labelBackgroundColor=default;verticalAlign=top;aspect=fixed;imageAspect=0;image=https://registry.npmmirror.com/@lobehub/icons-static-png/latest/files/dark/huggingface-color.png;" parent="fB_JaEAP2gieiiK0Zqah-36" vertex="1">
          <mxGeometry width="30" height="30" as="geometry" />
        </mxCell>
        <mxCell id="fB_JaEAP2gieiiK0Zqah-37" style="edgeStyle=orthogonalEdgeStyle;rounded=0;orthogonalLoop=1;jettySize=auto;html=1;exitX=1;exitY=0.5;exitDx=0;exitDy=0;exitPerimeter=0;entryX=0;entryY=0.5;entryDx=0;entryDy=0;" parent="1" source="fB_JaEAP2gieiiK0Zqah-31" target="fB_JaEAP2gieiiK0Zqah-35" edge="1">
          <mxGeometry relative="1" as="geometry" />
        </mxCell>
        <mxCell id="fB_JaEAP2gieiiK0Zqah-39" style="edgeStyle=orthogonalEdgeStyle;rounded=0;orthogonalLoop=1;jettySize=auto;html=1;exitX=1;exitY=0.5;exitDx=0;exitDy=0;entryX=-0.009;entryY=0.537;entryDx=0;entryDy=0;entryPerimeter=0;" parent="1" source="fB_JaEAP2gieiiK0Zqah-35" target="fB_JaEAP2gieiiK0Zqah-19" edge="1">
          <mxGeometry relative="1" as="geometry" />
        </mxCell>
        <mxCell id="fB_JaEAP2gieiiK0Zqah-41" style="edgeStyle=orthogonalEdgeStyle;rounded=0;orthogonalLoop=1;jettySize=auto;html=1;exitX=1;exitY=0.5;exitDx=0;exitDy=0;exitPerimeter=0;entryX=0;entryY=0.5;entryDx=0;entryDy=0;entryPerimeter=0;" parent="1" source="fB_JaEAP2gieiiK0Zqah-19" target="fB_JaEAP2gieiiK0Zqah-40" edge="1">
          <mxGeometry relative="1" as="geometry" />
        </mxCell>
        <mxCell id="fB_JaEAP2gieiiK0Zqah-44" value="" style="group" parent="1" vertex="1" connectable="0">
          <mxGeometry x="479" y="290" width="67" height="76" as="geometry" />
        </mxCell>
        <mxCell id="fB_JaEAP2gieiiK0Zqah-40" value="Prompt" style="shape=note;whiteSpace=wrap;html=1;backgroundOutline=1;darkOpacity=0.05;verticalAlign=bottom;size=17;" parent="fB_JaEAP2gieiiK0Zqah-44" vertex="1">
          <mxGeometry x="19" y="16" width="48" height="60" as="geometry" />
        </mxCell>
        <mxCell id="fB_JaEAP2gieiiK0Zqah-42" value="" style="shape=image;verticalLabelPosition=bottom;labelBackgroundColor=default;verticalAlign=top;aspect=fixed;imageAspect=0;image=https://registry.npmmirror.com/@lobehub/icons-static-png/latest/files/dark/huggingface-color.png;" parent="fB_JaEAP2gieiiK0Zqah-44" vertex="1">
          <mxGeometry width="30" height="30" as="geometry" />
        </mxCell>
        <mxCell id="fB_JaEAP2gieiiK0Zqah-45" value="Data Base" style="text;html=1;align=center;verticalAlign=middle;whiteSpace=wrap;rounded=0;" parent="1" vertex="1">
          <mxGeometry x="619" y="358" width="60" height="30" as="geometry" />
        </mxCell>
        <mxCell id="fB_JaEAP2gieiiK0Zqah-46" value="" style="group" parent="1" vertex="1" connectable="0">
          <mxGeometry x="619" y="301" width="60" height="60" as="geometry" />
        </mxCell>
        <mxCell id="fB_JaEAP2gieiiK0Zqah-47" value="" style="strokeWidth=2;html=1;shape=mxgraph.flowchart.database;whiteSpace=wrap;" parent="fB_JaEAP2gieiiK0Zqah-46" vertex="1">
          <mxGeometry width="60" height="60" as="geometry" />
        </mxCell>
        <mxCell id="fB_JaEAP2gieiiK0Zqah-48" value="" style="shape=image;verticalLabelPosition=bottom;labelBackgroundColor=default;verticalAlign=top;aspect=fixed;imageAspect=0;image=data:image/png,iVBORw0KGgoAAAANSUhEUgAAAOEAAADhCAMAAAAJbSJIAAAAflBMVEX///8zZ5EwZZAfXYsqYo4oYY0tZI8jX4wdXIoXWonw9Pf6/P31+Prr8PTg5+13lK/I1N+SqsCftMfT3ebm7PGNpr2En7hLd5ybsMTM2OK4yNbAzdpBcZirvc7b4+p/nLZih6dVfqG0xNNsj61FdJuou8xagqR6lrEAVIUAUYT73WEmAAAcDUlEQVR4nO096ZqjLLMtqGj2zawm0Zhlzv3f4BGoQjSoYPe8k3m+qV+9GENB7RtfX//gH/yDf/C/B6PZejV/h+S0+dMr+wHYnPbFzvOjwA+b4Ac03BX7xei/Wst4PORDm8PxsU+22yRZrh7n4+lwmU3wn5tzEVLGQuIRzwyE+IzSdHv8jViOp+vbfpvlqeeF5Vemuzybb/eP43oz6sF4vDkmTz+OGGOB7wcllD/RKI5j73kt0d3eYxa2YNbA06fxcz/7HehdbvNdGFPm+yHBTeXkw1fKvF2RHC8tn5wckpzRoAWDkCPsvx9ceZjl2zmFvv0vZOz5+OGTPCQpY4ZlaFsb0MDLHuu3j66vHgs6Ptl4DwmDcsvK0w28e55lRZE9714cR+XW6lsUMu/VtqPucNmy2G6NPoto8ZhVJDs5p7FvwMMzclsYUD/NtudFSfb1JYwui8c196hOyn6cve/nEFhk5Xbqq+OCjXE+Kpkp8Js0VIqD+L49TflHx2ePEv0/jMac39I09YKSKQPtWMIg9rLlYtbF0KPLo0gjpl7px8X3cVw8I3UGJQHRmKaldFmuVqvHY7XaL69ZGou1Eg1T4kfkuTzu79piaHx/7W+Ly2Y6Gk0mk9F0sz6utvzTLAxZHBartRVnTS7LtNrykL6m38Jvk1Hc5ZDRMF+eTEKsVAKr1708WJ1TSnZC/EhAve2pZf3j9XmeL91Y6rL0GO67z/bueClYxbBkwli+PHRrhPHlWHJK9CYyQ5omP8MvOpwyijiydOjrZ08K+NHUdpOniyRviIPnaYh1wKEk5em0VdOu53iOIR12jCegORKlR6c1Tm9FDBtM4qf7/o5nh+P+WuS7lL8iTUul8dqf1u/8NpsDjRH2nBhe1APLGGng6P7h8WLulSqe3Reun9xkEdd9NbuC+EIKc2HU2OrLE3jdD52V4zaSnwz27+c35oLwUIrFzXTSerrjwzZfNf42mp3Oy2R7fb2uSVIK1tnU8PK9V1NOOkcHUVic6y7GDZ4mzPEg5pIFWV7fmvHllhTPXUpoHEVRSYppnhXblYmEmjA6bZ8eP53SLvWFaVpaLh53F5pe0TSJ2k3UkPnZWRfL0yKWx8ia+9kJVyq5KKl98y3zygVqdiIRpmlpr5W0ku1PHWgeM2I0TEmphPx70iDmWRa3m1Cl6e1fdaV1llYFiZIva1hG8uBv1Z/GtzxmBvtL4Vp6NrG3PRro7muzpLT9o+UuBRGdn2qy4pS2kaqA0pjRiOviybdHL1sEj/IEw2pnR3uP2jg3pcW2Sw51uTbdMtZr1JZWkLfUD2ayjTo/FMavirpHTyb+yOZ2CM7k4/Sg/vLwmAV6sNaApoVGdSvSj58EFhQHbRkLr+PcSwhIxXhjlBuFFYYpPy0Sq1Vedvb4CQh9dRozl8+SkOYajpOMdj/P8uoYEyn7mQ2hJmJN9KwOsEOymaE6/aPrZ8M402h137M9viYpVlLe0H5xcxGeINvi79sOsWaGSFGPlFiOOLKk4uNTl9MtEJqrhx/yxCN1NG3w5Lse7lAkzh0ptOQPxQuvHiozAwnSio0vYTczliaXEqp7YYWRuMdOPIptj5BUCmcE/WpzBiEoFnlVOmeU9qAYxurQEqkDvG4bNRU0uq99xgl83NOr8+ZUENzVQYzyTs3I92OpiEZ8Jbt2IXjjKJEUtvAWO69N7eh+6AkKCJk6mVHec4qeMmbG4lHCuuhUHGEERuzF/RT8DF50ct+cxrKVrJukfQI5wlOcifMOO7TikeMU5vqOuIEPtunmuwiWYjJDfhr1ohg/4FEpUON2VyrjONGj/rQTMPymAZvzBsEOUby0RvoR4pNOhMH2qwVm3MAiKRCH+yLJHRh49S0mRPDv6CYtehVrAObNmVMhYW0YLjkZo5+17JFhBkATY2ZrivZAmKJD9uhDMYTNnQiCjtpiCzu+sFhu3HjAEe6Q2F3tvPZ14yn26h4G0ubF1x0s33ATcOEbhdLw7C5IKRzh4vtiBkHZD+Nn364RuRnC9UNh2YQVRwopLXc/Bx/ec/8ZGhUQwIZ/bUjPW0HHSYXhmeNHAikmt2KALkQGPv6ImFFvRQtl0fNaEKATHoMkoTElPubEFT7lL+5yhgTTwaffBcpVWXZvOlJmLuxOo0Y8cDZEHnVfpg8hhNOPHmEJEbqbPUo2lE8JMUcPb+iV8OB7RKXqHGCTUJDQ2Q8o+xqQEIhj1k1XsXyqELx2MyAo/kVAc96c2RDN9dnPCVIE/6mfQSvE0gTaCnVhDJ7ehUGjPeYEaCkl7oZCL1BcbyfvxPJwROjDqBBH/Clk152zwEeX5RteYSsQCh75uotAokt10IEpXCP0AzoeA0hNfrDfghwCIdjKX9cOConWFYP5Jttb6Bs43YvzOn1QW6+fljMSKDgto47Xg8wVHqDRu1gJs1vKIHeJDzJ4MhyJHgADtSPACBiKtRup9Mq3hx0qWnYCEGSH38GGHBgsedT+SO0MTZJmK85QsrSzKEVT6HdIUgGEgR22at1DCCOeWzE8MZ4gkcRQuGKIb+z1AAZDAIzezgcgS6W2MOjDkfD/ifzF2WYDl3PaF6P+BsRg2bRazPCApEVD5FvYaRjBcPV/CJNv/z26QgIe4qhNk9WsNkPOW2CICj91/HYCjmpfKuU7gLsoUTCBxijUEMaQGGbyF9dvR7/ix61uHVCcHsyEAsJuLMwxaggKSwylSTN2/XJk7G/i0AcQQTLzENgcI0F/gcE/FBj6MsHorLeBKKY/71fogOkUMy/ALm94IQUhBh//WxjClvUFGgYCVHsGLOyKsIBVBQanIf/0LQw9KQRqphAhYmX+91gzoHGavZL96rFaraC8e2z0fGL5z5PMLb0jCHw4H4QhvhDNbkL4lu+K7XK/3GYes6rjMIDPvMTUf2A070N5bMK8RolpOMNhkqbuVYbMzxO90mlze1oW4teA0KwldG2K5eIapItvMry/ow/Rq2TEI0H0fLyz+TqjrtZOkJ7eXgOwMGAIDAbq0BSmkTbNXf7iaNOANzalhEVJSyvEzbHigRbtyeqDQaKBKJUMFplCbaOdZpc6Jh7g7Zdf6aq9EvXy3jfRhWBrguzLfIaAlAwSxsaS64XmW1zdBCBYgeuH6b0Vig4YBrXKH14sLOrfYf9MDjpoQPmv0LgA6QFr0Rx7MFmBHEabWgXpyfqtoUqOfo0XSXb3eNIive/uEg2DpMG8l/A8WtLcAkNYq6Pqjt6twMlin4n2qFTr35nbkobasvHSi6IojkS/DiGx5gI29gQsY+H3maOlEKeRfpVjyDtqCM/p+flLLIo3RoVMlYO0Oj7N5WbwgUMY0XT+OC3OhSBxDPq+u4joEEo2NMb0ZcoIY1RuGNYZe1GAivdpurunlPoRrtiSvxnoiUUU7PA011xQUfmzQeMDe625zUaYWQyvRZwRKDh1Eu2xxmzHHC2Y4DqbjCeT6WkeYelIZ0RXAWGQsQ7CVK2VZ83QdjJ4iCBbznoxSRNEChIZttXLNGNYnd+9arLJ1F8vyKljq51TGT6mBXbXtMpPv0eDULYIB7W1FEM+K23o9oiWEUM4w02hqXU93DX7BdLfikzRS7oTVZ0lsYKlGxxEYEOp72mbMSTtHWmSHN0wlLQ0C/T1o30kIAB35mwjpEG9zkrOCwqJ4niuRdCmhhXIZQtOa0kAf0GsE70sJ1EDUa5GFY1mHM5ikPMXGwwhcCcztrvbZjI735mOumH75fcI0iMtbAjnBhQyceJDKNZsKmJVpji5E6iW6ghZa6/TUiyl2KGUQn0ORETfI3rIr8LabK+IEt5xTXPaAhxQ02Yh4Y3T5viw85Xpb/NePXhdR11qpXeLK5KUNxUvZ60+yZf0LiThO1mmsOnvJj9Ni+t8p9eS2bwXz/CdoiUzv6cOoJZG+vdBe6em8C5gn5wKhqAuYP2+JBJihxbIWxuLF2y2N/ua5PIdb6oMtYjwftu0oXiA7w2wuWG1HUuSdDHr+gyQnsnxaQKk+N6kEkYg3sI0wOQyNNFilEqy6JbIHUs69mPIaiVLnYBxwWbNJURE36JIxJfqQVpMHcWlUkWgdZA72G2gFzadGIIBYCFpUCo1DSCIvrzZ70iXkLNpRxA2B6rTXEQNeiRdGKLFaxEgQdOxmSMATfamq7FuV35PV3BAqhMo2nCxauArOjHssJrfAFyIpukIG7luqkMwOOTfW0tLBdSsGgcMkXG6pZN9eopqrpCOoWSGZmam5t4bo90VHPUkvwOVAoadkgatRRvawJqt5hmejBii8yvo3+9u0Jvp3pVDpswGQywpasmN1QClXUO1A3U1nEwC9aJrpj3TBhMpBrTwuBOG3WY1mAU2pTpYe9bABRVO/Q0oeWE7ekZPiAoF3Gx79wIkTbeVALtrlYHDBGddt4NSarwBRIt0GruaSapzQwvBPg4PX92NIbCLVTQKZUFdmqJ/UnsDOsnyvHuIFGxndC/sA98oAroxBL/MBkO0/6e1JUDUYFLbebQkrrLlqQfBr5EISzqXHVhFWXF9VsSPiYe5jiJYbbVgD1YSjYUL6Xe2rQkQxAwfsmdEvaKsHcMWm8sIuNSaoY4uhO5j4t9k+XxLoFQH4V5A49PImg8jswfcWDQkqOwCihQUd+28gLj0ii00YQTWtdBQC4itqMUEbADMpu7SaXirZTgdbc26rHkrYCZgZ8vQjc3giKmeRbTuSIB4abd3Cxhalq6q/jL9cfDOtbYE1aQl/tQaZNNBUAWciW1+BiVY944AH9qFvatoi56jANevij9gndQktVKG8oVC50tGtPWCm4UKLUuW2sK29A0D3xtNLb+FN9Cekf3ZrF/OfGGVNEgyy4AbLqabb0HjW5cf43q1fcPwhtokLJ8XwWxjick7gAckf+npw0HAnewu8IcDsPY7keYuVTMjcJ2KhODWSp+YdaegEca5Ftu38QM8pct7or2Q/7LvVQEdpCkHIHTFPWijyXhEbDkrKtELUO0whM2b9ZTPSkFobylh8qryJXxsT8Mvkg9IM6k91N0AIUBVssqKEbFQoXM/XELCABg1U8lxtJh39blJUktFtrOwJAmAg2YXF26L4NZgQLoA91kZCXWzjVDwBcWRqkkA/SCTbFJI2bVpgVnazWFI+C75EBSVW3izCj/I/AS4WNIk7fWbKlhpKSi74igrDCHD59SbioeIokWFGYVygDgwqIqd/dQ8mYLK5C9W/RORDZWCVHBr+0NfH9QWmpMyiQZKW/rdlqpCAkcKzSErfYERoq5n0Wt3KxDAjYZAPmLIT41A8wu8saX8wgyyOEqaDyObKkVgsVmXlISMmVM6xKscPjnBAjHkkgZj6KDtWxrwzXDUQxlziz0Hpu3S+MhBhpxgJ6hUmcjSwJGK5FOsHyGhTnNaR4LaAkDXgm9QIHS0BGEXqPO0BfRwj1qCmhMWHqE0B6y1/Ze2DKAPuz4f+bkuc2WqrccFQpxEwSlTs9pwzpOwBrB72RoeeveXza5D1Ve7qEFnZUBrmxpFwZTxdKHq0KRZ7nqEMnaNVpYN56C32r5MsKgG9O6poqFyq2NVQ4oz76RV7rteKiDTyOAL2MTG0H1qI1OUF6chjV9ofR4oavUlw3Fyl0Fc+IX+hQOZQoho2hImh2KQYd2JKuz2pLgiHzoPIHtkrnnuBBG8VgLeJh2GQZWWZ+V/Z/bD52svx46u/wOqCiIwYA4DdKEEWdQAzDO1WJfyAoyHhEbugKlFAnC8FvDCKcZwxU76GEPuEJBmDSzMxtBCE8o0IIr4ekBsADQOqfgFFCOdCrfpugjCHEUytVH6KvVqYDU19GRwgynRLZbpLyAYmU8jqYtFWoFYJxT5WFXboT9uoGkGZolz+7SCWmd2gsr+0RhD6gYiDqv8AYulKQPyLcWGCu07Q+qC6hAnSLMjyYR2IcR3kOYJxLKtYt9qL0+NUWZKznxnUmRVf/AAgxlGZET2rn0dJI2j2Wu1ihAbng71maPoBHyrU18NJZ3g/GbpNXWV6fWA2HGUEVbb7+cYR6gND0Yy+t5wJTXNb4M5UCnSjC1cdgDxFKlq7FioIqXxNlYnFjjonK6XNzoKZRSw6geYHm77a5EV17P1gP1c7+OzW141kPPr8sQZ5WAtT787bCGutRRCgt9ff002h/N2xxuHmB/6Pr8DxpI1hSzGIKSlKqOaVD9cvTjwCfp3A0b4NV+uNzbOwTzKUwZNURWQqKN1Ud8lmVWF3mLLlstYty9Gi2WW/nLQON0QVr0X1dxC87ICu9CiDNkBF9l1mFTjOBXAV01/UTqkF1gHbeC6GTPCQaKY2WAoKBMloVXVAvFaPdHpYrHY5x1XD/RCSHc3PJmk2XFL/IBRku7yuy/Jt3+q9xc6GDjc1WYmD+0TY5disMpgO01+rAsW8WsoxM1TlMbhrkhu682E3+CSCINDaZdOEH4wJiEtMhhqEv/03Brb6x2y3gLRtr7i0WKVzLP8WWxXt8WmdlOKlGkWlTVYwYFJq95iTNUEtAkjWrR9wcyp3xnByckVK7X7RKGnB/oqpNSIyimf3BxG3vZovDNw7dyYXwVH7UB4e77VbR5QcgUk1x1kUXcSTHBCpU+pl2fv7umAEdNWdTLVskXVU2b1rNCC6Jx1lolUkvyphyrCENXH5KTEkPMQKlWPNz7n6bz3csebPjywByTTYpikI+hW6Z/aVQNEdXcsoigusJve1bzBYaSLgIXEj68mkT2ZqkvTnt0NbHUQ54FM214gW7XPJ7XVK60k3GI857HzFCpo4AQt6Ee77fkw4xJ0Mt3MDrdSrOZsh/6VrPc2DfsygexYxNzcqyVWpkaoNnhMTfS/SB2Bwsgmn6W/Hkzbqv6L8JskvXS3S0tDIOL3MFbm4kQE4NQAuz6Q5bhqol/LIaqhvUdd3pIY2UfNxYdOEceJDW3dNsJGE+qd5oo5x09f/0w/7Jm+IWYxiJGmUqFUd135UYp0Ut1AAGlSx4kNWBrcdlMrTSvHaixvwyC95pUCOYkPff2xSQxG+P4LTtwufbR0W91Q9VJHNmwmBTi/G5M5RII4v1VadwrXfTCHTIY8NqyiW78PzFcjIYSm98LSX8seF03VryrShZCNI4YQylrXzW3Cb8mM6xczXuDKltCiVrgCOU4RfbO3m0fUBUvje+gFzCtuDfq4VWpUpaAcMYRe+1ca0EBelixcsTw51u3fB1zz5adOcX4o3cSTyurylGX4XMaYt32/yPNcGWkErSNHhVjVAl1O4s7rZWltrzfNr9oUQCx+6njjs+Q9jAnWr0SpFOGV0eX7zo3129PU9S9u4wxMs2HeYbzCGGaYuuZLZRZSBSY3Goq+6jLaR6Yp6OdUw0VdI+JakBFbrPisboZjO/dUVFKzbL5GKhoaqAs2bnHcbGwcrxP9zjzCqgdcMexzZjfLoBLX7vlg1BgVO4yvMhoaZbhbh7huyk9m53lauwk60G+0dcOQBF9dMHtkVOHnhwMuTf1SNxtVN+It8jiKQ2X5zQgJVFnZeL0q+C3ltUXGhS713Grb2ttExpfjdhdUA/0aX+MC8goUJQu/eIi5UgrcKMOuz80ujmnDjQ9p40pZNwwxrl28Hidx5/V0czkcH9ssDfh175okax9h1wvjnTT2jFJKmLrqHrPRKg8p3tJNiB9EXtFkUTdZqkqfSzUYxQKiiDVuAi9X4H3n9mpOh2I703dzT/r06hKdEqanpLj7fCX+vVjW7l8dD8CwWb5uAkLD/ZBsvgYLaTKFQZMQNnfJcbRe3zkWQ+QatwWPX1LcuGl8rHxs/VAYxPfzsFS3DnjJXDSvMfNZ8XncK8WO/q8hGFJzBzcHQsLSknquHG2YFliBdRKES+TG0SmvTBZCk069dckiLPl1wzAy9WmI6a+xv5s/1t8/PYQH+gjMfybn421fpPXJq6wjrbXZ8vuOB2FItT6NQEqa0r/Pi+SxNl0+/B04IkKk9FuYpvJ8WDFhOzM/XK6BKNEAy84NQ6gm4SU+wbJk8Mn4h/HSF2q8aJnQ7Vrdg07jbHXQJcxktFimMTiv1KabtgEhJM95pM+h42AgTLbvt98yrxQxa0/9PQwiWtLQdZtsr/MiT2lUVdhYtZ40MYSxOzxKY+VlfBPWeVybycbirWCTTV4TdaG4PN0P/fqGDMEQr+Li+9Q1XOcHcXyRkgX9MOTMmO6V7jhb3E49CEOYm8LlXPwzaqEXJofHK8uyIqkHLCartP0GZ18fy+GEoa4ObTzF3wqT0zyM2Fv6jARR+FrwDAGs1ikSRbXxdANKZX8cJot9TmNhGIsELTeW78liLA9uAIY41kZM7KAfgKGA6eF0Xl6L4pXszycMLIpa+wFnCHEzOYrt5+yX3wCHqpvA6Qy1djVt1ucnAk8JgZ/sgiH6vzySQvKPxpAXykELXfeUlzr42mBj430AnwPcvwPd5nKGsClT7eaGTwWOIUQkXc6Qab2NAzpH/kvYMJVFcsEQ1KE+PfZTgVcCAlO5zNWEXlbhHdpmrv8QjJjKdTpgiOFgUdrz+52nb8GEKVHhcLsiqkM5PPY/cS2GA1O+3sYeQyyLkZc4/UeuxVAonStQaHbjvgTUg6WfYpa2gFel6OzPECfSiA56h6ECfwRKVkKusu/Sg24DOY4k+3OLt4JSHGLFsX0TG0ysOuuTjz4WeEkTRAata/dQWSTaPMfPBeHDyiOx7i5Rl1GIotjO+bkfADdWOuxS3ls3rUMdrGy9Nt3491HApYXrVUT6PApivuLog4BbMu0T81swhKmz+o1pnwtcz7uGMSAE/Dd4Fl+ythAHDlurfC3v9I1GvP8KcoIOoq3ZpooUeBiKfrhF8yVKg8G5sL1fEZsOuYVgWZr+R2EZKGlhOT5Cv8B1aM/2fwk8MK+lO21Au3rEtnD7TwIfv0MNV7K2ApaS8f3A/quPBj41Am9AsRKmMM9YtJIPmw3xX0MpEkFdmO+7fcNQfkwMBPp0/17CmSpis5mAicfGnZJw1/7aDwI+nwZSgNN+UYMjPfileZ/vOQGUtIlFjIZLGhuA8yDEVW2201f/NCyZ8vgmfaYptvuJGfMfHs+vgPsI2Lrx6BanFLMw/AhxiuNfAHdSWV/PLlaM8dBG+hiZvwB4LxwW9b9dWFWBX2UoePyCfHqgVINRKU2V4L/4Zus0oFW5tpg7Zbxl+1OBG2Cqr2GWvmtFP/K2VTzmyDtu3Pqc/zSItFM1Tmcb1bqGWextFxpFnuSlm38PjXJ41vlqkwQRC/jQFUajfF+vzDuLuRVvvSofDsLm9vWiisstub62+2Oz7nDyEpEAqwkXHwWFCF9nvSGJhSxmjQaMDPzDMBJqMMi7metSyK6++O/RhBXIHqOQdKSsF09ZcE2iv8TgbgDMVowLo8s3Xi89mKPle3+ZkFGwlSapT4tFw2WYHV93pUCi7K+xRt/gCk3LIfOy1Wk9m46mm/ViVdx9qhq2mffZlRc9sFIV035Ao4j3akU0CFWvVon638mBFSzS9qpwwqLn7fMD3H0wSajRyw9pvFt+eqLQEqZLnwa1xnCf0bA4/wWRX3tYJLnHIt5hxEoJmm+Pf0XI0BGml8Pt/DjfDrO/y4P4B//gH/wDHf4f0wGjk+sFCIIAAAAASUVORK5CYII=;" parent="fB_JaEAP2gieiiK0Zqah-46" vertex="1">
          <mxGeometry x="17.5" y="26" width="25" height="25" as="geometry" />
        </mxCell>
        <mxCell id="fB_JaEAP2gieiiK0Zqah-49" style="edgeStyle=orthogonalEdgeStyle;rounded=0;orthogonalLoop=1;jettySize=auto;html=1;exitX=0;exitY=0;exitDx=48;exitDy=30;exitPerimeter=0;entryX=-0.04;entryY=0.582;entryDx=0;entryDy=0;entryPerimeter=0;" parent="1" source="fB_JaEAP2gieiiK0Zqah-40" target="fB_JaEAP2gieiiK0Zqah-47" edge="1">
          <mxGeometry relative="1" as="geometry" />
        </mxCell>
        <mxCell id="fB_JaEAP2gieiiK0Zqah-50" value="Sentiment&lt;div&gt;Extraction&lt;/div&gt;" style="text;html=1;align=center;verticalAlign=middle;whiteSpace=wrap;rounded=0;" parent="1" vertex="1">
          <mxGeometry x="546" y="301" width="60" height="30" as="geometry" />
        </mxCell>
        <mxCell id="fziwPW4sXeJ1kSOILinP-2" value="" style="edgeStyle=orthogonalEdgeStyle;rounded=0;orthogonalLoop=1;jettySize=auto;html=1;exitX=1;exitY=0.5;exitDx=0;exitDy=0;" edge="1" parent="1" source="fB_JaEAP2gieiiK0Zqah-6" target="fziwPW4sXeJ1kSOILinP-1">
          <mxGeometry relative="1" as="geometry">
            <mxPoint x="359" y="192" as="sourcePoint" />
            <mxPoint x="499" y="192" as="targetPoint" />
          </mxGeometry>
        </mxCell>
        <mxCell id="fziwPW4sXeJ1kSOILinP-1" value="HTML" style="shape=note;whiteSpace=wrap;html=1;backgroundOutline=1;darkOpacity=0.05;verticalAlign=bottom;size=17;" vertex="1" parent="1">
          <mxGeometry x="403" y="162" width="48" height="60" as="geometry" />
        </mxCell>
        <mxCell id="fziwPW4sXeJ1kSOILinP-3" value="Predictor" style="rounded=1;whiteSpace=wrap;html=1;arcSize=4;verticalAlign=top;align=center;fontStyle=1;connectable=0;" vertex="1" parent="1">
          <mxGeometry x="129" y="430" width="641" height="290" as="geometry" />
        </mxCell>
        <mxCell id="fziwPW4sXeJ1kSOILinP-4" value="" style="group" vertex="1" connectable="0" parent="1">
          <mxGeometry x="139" y="603" width="60" height="90" as="geometry" />
        </mxCell>
        <mxCell id="fziwPW4sXeJ1kSOILinP-5" value="Data Source" style="text;html=1;align=center;verticalAlign=middle;whiteSpace=wrap;rounded=0;" vertex="1" parent="fziwPW4sXeJ1kSOILinP-4">
          <mxGeometry y="61" width="60" height="30" as="geometry" />
        </mxCell>
        <mxCell id="fziwPW4sXeJ1kSOILinP-6" value="" style="group" vertex="1" connectable="0" parent="fziwPW4sXeJ1kSOILinP-4">
          <mxGeometry width="60" height="60" as="geometry" />
        </mxCell>
        <mxCell id="fziwPW4sXeJ1kSOILinP-7" value="" style="strokeWidth=2;html=1;shape=mxgraph.flowchart.database;whiteSpace=wrap;" vertex="1" parent="fziwPW4sXeJ1kSOILinP-6">
          <mxGeometry width="60" height="60" as="geometry" />
        </mxCell>
        <mxCell id="fziwPW4sXeJ1kSOILinP-8" value="" style="shape=image;verticalLabelPosition=bottom;labelBackgroundColor=default;verticalAlign=top;aspect=fixed;imageAspect=0;image=data:image/png,iVBORw0KGgoAAAANSUhEUgAAAOEAAADhCAMAAAAJbSJIAAAAflBMVEX///8zZ5EwZZAfXYsqYo4oYY0tZI8jX4wdXIoXWonw9Pf6/P31+Prr8PTg5+13lK/I1N+SqsCftMfT3ebm7PGNpr2En7hLd5ybsMTM2OK4yNbAzdpBcZirvc7b4+p/nLZih6dVfqG0xNNsj61FdJuou8xagqR6lrEAVIUAUYT73WEmAAAcDUlEQVR4nO096ZqjLLMtqGj2zawm0Zhlzv3f4BGoQjSoYPe8k3m+qV+9GENB7RtfX//gH/yDf/C/B6PZejV/h+S0+dMr+wHYnPbFzvOjwA+b4Ac03BX7xei/Wst4PORDm8PxsU+22yRZrh7n4+lwmU3wn5tzEVLGQuIRzwyE+IzSdHv8jViOp+vbfpvlqeeF5Vemuzybb/eP43oz6sF4vDkmTz+OGGOB7wcllD/RKI5j73kt0d3eYxa2YNbA06fxcz/7HehdbvNdGFPm+yHBTeXkw1fKvF2RHC8tn5wckpzRoAWDkCPsvx9ceZjl2zmFvv0vZOz5+OGTPCQpY4ZlaFsb0MDLHuu3j66vHgs6Ptl4DwmDcsvK0w28e55lRZE9714cR+XW6lsUMu/VtqPucNmy2G6NPoto8ZhVJDs5p7FvwMMzclsYUD/NtudFSfb1JYwui8c196hOyn6cve/nEFhk5Xbqq+OCjXE+Kpkp8Js0VIqD+L49TflHx2ePEv0/jMac39I09YKSKQPtWMIg9rLlYtbF0KPLo0gjpl7px8X3cVw8I3UGJQHRmKaldFmuVqvHY7XaL69ZGou1Eg1T4kfkuTzu79piaHx/7W+Ly2Y6Gk0mk9F0sz6utvzTLAxZHBartRVnTS7LtNrykL6m38Jvk1Hc5ZDRMF+eTEKsVAKr1708WJ1TSnZC/EhAve2pZf3j9XmeL91Y6rL0GO67z/bueClYxbBkwli+PHRrhPHlWHJK9CYyQ5omP8MvOpwyijiydOjrZ08K+NHUdpOniyRviIPnaYh1wKEk5em0VdOu53iOIR12jCegORKlR6c1Tm9FDBtM4qf7/o5nh+P+WuS7lL8iTUul8dqf1u/8NpsDjRH2nBhe1APLGGng6P7h8WLulSqe3Reun9xkEdd9NbuC+EIKc2HU2OrLE3jdD52V4zaSnwz27+c35oLwUIrFzXTSerrjwzZfNf42mp3Oy2R7fb2uSVIK1tnU8PK9V1NOOkcHUVic6y7GDZ4mzPEg5pIFWV7fmvHllhTPXUpoHEVRSYppnhXblYmEmjA6bZ8eP53SLvWFaVpaLh53F5pe0TSJ2k3UkPnZWRfL0yKWx8ia+9kJVyq5KKl98y3zygVqdiIRpmlpr5W0ku1PHWgeM2I0TEmphPx70iDmWRa3m1Cl6e1fdaV1llYFiZIva1hG8uBv1Z/GtzxmBvtL4Vp6NrG3PRro7muzpLT9o+UuBRGdn2qy4pS2kaqA0pjRiOviybdHL1sEj/IEw2pnR3uP2jg3pcW2Sw51uTbdMtZr1JZWkLfUD2ayjTo/FMavirpHTyb+yOZ2CM7k4/Sg/vLwmAV6sNaApoVGdSvSj58EFhQHbRkLr+PcSwhIxXhjlBuFFYYpPy0Sq1Vedvb4CQh9dRozl8+SkOYajpOMdj/P8uoYEyn7mQ2hJmJN9KwOsEOymaE6/aPrZ8M402h137M9viYpVlLe0H5xcxGeINvi79sOsWaGSFGPlFiOOLKk4uNTl9MtEJqrhx/yxCN1NG3w5Lse7lAkzh0ptOQPxQuvHiozAwnSio0vYTczliaXEqp7YYWRuMdOPIptj5BUCmcE/WpzBiEoFnlVOmeU9qAYxurQEqkDvG4bNRU0uq99xgl83NOr8+ZUENzVQYzyTs3I92OpiEZ8Jbt2IXjjKJEUtvAWO69N7eh+6AkKCJk6mVHec4qeMmbG4lHCuuhUHGEERuzF/RT8DF50ct+cxrKVrJukfQI5wlOcifMOO7TikeMU5vqOuIEPtunmuwiWYjJDfhr1ohg/4FEpUON2VyrjONGj/rQTMPymAZvzBsEOUby0RvoR4pNOhMH2qwVm3MAiKRCH+yLJHRh49S0mRPDv6CYtehVrAObNmVMhYW0YLjkZo5+17JFhBkATY2ZrivZAmKJD9uhDMYTNnQiCjtpiCzu+sFhu3HjAEe6Q2F3tvPZ14yn26h4G0ubF1x0s33ATcOEbhdLw7C5IKRzh4vtiBkHZD+Nn364RuRnC9UNh2YQVRwopLXc/Bx/ec/8ZGhUQwIZ/bUjPW0HHSYXhmeNHAikmt2KALkQGPv6ImFFvRQtl0fNaEKATHoMkoTElPubEFT7lL+5yhgTTwaffBcpVWXZvOlJmLuxOo0Y8cDZEHnVfpg8hhNOPHmEJEbqbPUo2lE8JMUcPb+iV8OB7RKXqHGCTUJDQ2Q8o+xqQEIhj1k1XsXyqELx2MyAo/kVAc96c2RDN9dnPCVIE/6mfQSvE0gTaCnVhDJ7ehUGjPeYEaCkl7oZCL1BcbyfvxPJwROjDqBBH/Clk152zwEeX5RteYSsQCh75uotAokt10IEpXCP0AzoeA0hNfrDfghwCIdjKX9cOConWFYP5Jttb6Bs43YvzOn1QW6+fljMSKDgto47Xg8wVHqDRu1gJs1vKIHeJDzJ4MhyJHgADtSPACBiKtRup9Mq3hx0qWnYCEGSH38GGHBgsedT+SO0MTZJmK85QsrSzKEVT6HdIUgGEgR22at1DCCOeWzE8MZ4gkcRQuGKIb+z1AAZDAIzezgcgS6W2MOjDkfD/ifzF2WYDl3PaF6P+BsRg2bRazPCApEVD5FvYaRjBcPV/CJNv/z26QgIe4qhNk9WsNkPOW2CICj91/HYCjmpfKuU7gLsoUTCBxijUEMaQGGbyF9dvR7/ix61uHVCcHsyEAsJuLMwxaggKSwylSTN2/XJk7G/i0AcQQTLzENgcI0F/gcE/FBj6MsHorLeBKKY/71fogOkUMy/ALm94IQUhBh//WxjClvUFGgYCVHsGLOyKsIBVBQanIf/0LQw9KQRqphAhYmX+91gzoHGavZL96rFaraC8e2z0fGL5z5PMLb0jCHw4H4QhvhDNbkL4lu+K7XK/3GYes6rjMIDPvMTUf2A070N5bMK8RolpOMNhkqbuVYbMzxO90mlze1oW4teA0KwldG2K5eIapItvMry/ow/Rq2TEI0H0fLyz+TqjrtZOkJ7eXgOwMGAIDAbq0BSmkTbNXf7iaNOANzalhEVJSyvEzbHigRbtyeqDQaKBKJUMFplCbaOdZpc6Jh7g7Zdf6aq9EvXy3jfRhWBrguzLfIaAlAwSxsaS64XmW1zdBCBYgeuH6b0Vig4YBrXKH14sLOrfYf9MDjpoQPmv0LgA6QFr0Rx7MFmBHEabWgXpyfqtoUqOfo0XSXb3eNIive/uEg2DpMG8l/A8WtLcAkNYq6Pqjt6twMlin4n2qFTr35nbkobasvHSi6IojkS/DiGx5gI29gQsY+H3maOlEKeRfpVjyDtqCM/p+flLLIo3RoVMlYO0Oj7N5WbwgUMY0XT+OC3OhSBxDPq+u4joEEo2NMb0ZcoIY1RuGNYZe1GAivdpurunlPoRrtiSvxnoiUUU7PA011xQUfmzQeMDe625zUaYWQyvRZwRKDh1Eu2xxmzHHC2Y4DqbjCeT6WkeYelIZ0RXAWGQsQ7CVK2VZ83QdjJ4iCBbznoxSRNEChIZttXLNGNYnd+9arLJ1F8vyKljq51TGT6mBXbXtMpPv0eDULYIB7W1FEM+K23o9oiWEUM4w02hqXU93DX7BdLfikzRS7oTVZ0lsYKlGxxEYEOp72mbMSTtHWmSHN0wlLQ0C/T1o30kIAB35mwjpEG9zkrOCwqJ4niuRdCmhhXIZQtOa0kAf0GsE70sJ1EDUa5GFY1mHM5ikPMXGwwhcCcztrvbZjI735mOumH75fcI0iMtbAjnBhQyceJDKNZsKmJVpji5E6iW6ghZa6/TUiyl2KGUQn0ORETfI3rIr8LabK+IEt5xTXPaAhxQ02Yh4Y3T5viw85Xpb/NePXhdR11qpXeLK5KUNxUvZ60+yZf0LiThO1mmsOnvJj9Ni+t8p9eS2bwXz/CdoiUzv6cOoJZG+vdBe6em8C5gn5wKhqAuYP2+JBJihxbIWxuLF2y2N/ua5PIdb6oMtYjwftu0oXiA7w2wuWG1HUuSdDHr+gyQnsnxaQKk+N6kEkYg3sI0wOQyNNFilEqy6JbIHUs69mPIaiVLnYBxwWbNJURE36JIxJfqQVpMHcWlUkWgdZA72G2gFzadGIIBYCFpUCo1DSCIvrzZ70iXkLNpRxA2B6rTXEQNeiRdGKLFaxEgQdOxmSMATfamq7FuV35PV3BAqhMo2nCxauArOjHssJrfAFyIpukIG7luqkMwOOTfW0tLBdSsGgcMkXG6pZN9eopqrpCOoWSGZmam5t4bo90VHPUkvwOVAoadkgatRRvawJqt5hmejBii8yvo3+9u0Jvp3pVDpswGQywpasmN1QClXUO1A3U1nEwC9aJrpj3TBhMpBrTwuBOG3WY1mAU2pTpYe9bABRVO/Q0oeWE7ekZPiAoF3Gx79wIkTbeVALtrlYHDBGddt4NSarwBRIt0GruaSapzQwvBPg4PX92NIbCLVTQKZUFdmqJ/UnsDOsnyvHuIFGxndC/sA98oAroxBL/MBkO0/6e1JUDUYFLbebQkrrLlqQfBr5EISzqXHVhFWXF9VsSPiYe5jiJYbbVgD1YSjYUL6Xe2rQkQxAwfsmdEvaKsHcMWm8sIuNSaoY4uhO5j4t9k+XxLoFQH4V5A49PImg8jswfcWDQkqOwCihQUd+28gLj0ii00YQTWtdBQC4itqMUEbADMpu7SaXirZTgdbc26rHkrYCZgZ8vQjc3giKmeRbTuSIB4abd3Cxhalq6q/jL9cfDOtbYE1aQl/tQaZNNBUAWciW1+BiVY944AH9qFvatoi56jANevij9gndQktVKG8oVC50tGtPWCm4UKLUuW2sK29A0D3xtNLb+FN9Cekf3ZrF/OfGGVNEgyy4AbLqabb0HjW5cf43q1fcPwhtokLJ8XwWxjick7gAckf+npw0HAnewu8IcDsPY7keYuVTMjcJ2KhODWSp+YdaegEca5Ftu38QM8pct7or2Q/7LvVQEdpCkHIHTFPWijyXhEbDkrKtELUO0whM2b9ZTPSkFobylh8qryJXxsT8Mvkg9IM6k91N0AIUBVssqKEbFQoXM/XELCABg1U8lxtJh39blJUktFtrOwJAmAg2YXF26L4NZgQLoA91kZCXWzjVDwBcWRqkkA/SCTbFJI2bVpgVnazWFI+C75EBSVW3izCj/I/AS4WNIk7fWbKlhpKSi74igrDCHD59SbioeIokWFGYVygDgwqIqd/dQ8mYLK5C9W/RORDZWCVHBr+0NfH9QWmpMyiQZKW/rdlqpCAkcKzSErfYERoq5n0Wt3KxDAjYZAPmLIT41A8wu8saX8wgyyOEqaDyObKkVgsVmXlISMmVM6xKscPjnBAjHkkgZj6KDtWxrwzXDUQxlziz0Hpu3S+MhBhpxgJ6hUmcjSwJGK5FOsHyGhTnNaR4LaAkDXgm9QIHS0BGEXqPO0BfRwj1qCmhMWHqE0B6y1/Ze2DKAPuz4f+bkuc2WqrccFQpxEwSlTs9pwzpOwBrB72RoeeveXza5D1Ve7qEFnZUBrmxpFwZTxdKHq0KRZ7nqEMnaNVpYN56C32r5MsKgG9O6poqFyq2NVQ4oz76RV7rteKiDTyOAL2MTG0H1qI1OUF6chjV9ofR4oavUlw3Fyl0Fc+IX+hQOZQoho2hImh2KQYd2JKuz2pLgiHzoPIHtkrnnuBBG8VgLeJh2GQZWWZ+V/Z/bD52svx46u/wOqCiIwYA4DdKEEWdQAzDO1WJfyAoyHhEbugKlFAnC8FvDCKcZwxU76GEPuEJBmDSzMxtBCE8o0IIr4ekBsADQOqfgFFCOdCrfpugjCHEUytVH6KvVqYDU19GRwgynRLZbpLyAYmU8jqYtFWoFYJxT5WFXboT9uoGkGZolz+7SCWmd2gsr+0RhD6gYiDqv8AYulKQPyLcWGCu07Q+qC6hAnSLMjyYR2IcR3kOYJxLKtYt9qL0+NUWZKznxnUmRVf/AAgxlGZET2rn0dJI2j2Wu1ihAbng71maPoBHyrU18NJZ3g/GbpNXWV6fWA2HGUEVbb7+cYR6gND0Yy+t5wJTXNb4M5UCnSjC1cdgDxFKlq7FioIqXxNlYnFjjonK6XNzoKZRSw6geYHm77a5EV17P1gP1c7+OzW141kPPr8sQZ5WAtT787bCGutRRCgt9ff002h/N2xxuHmB/6Pr8DxpI1hSzGIKSlKqOaVD9cvTjwCfp3A0b4NV+uNzbOwTzKUwZNURWQqKN1Ud8lmVWF3mLLlstYty9Gi2WW/nLQON0QVr0X1dxC87ICu9CiDNkBF9l1mFTjOBXAV01/UTqkF1gHbeC6GTPCQaKY2WAoKBMloVXVAvFaPdHpYrHY5x1XD/RCSHc3PJmk2XFL/IBRku7yuy/Jt3+q9xc6GDjc1WYmD+0TY5disMpgO01+rAsW8WsoxM1TlMbhrkhu682E3+CSCINDaZdOEH4wJiEtMhhqEv/03Brb6x2y3gLRtr7i0WKVzLP8WWxXt8WmdlOKlGkWlTVYwYFJq95iTNUEtAkjWrR9wcyp3xnByckVK7X7RKGnB/oqpNSIyimf3BxG3vZovDNw7dyYXwVH7UB4e77VbR5QcgUk1x1kUXcSTHBCpU+pl2fv7umAEdNWdTLVskXVU2b1rNCC6Jx1lolUkvyphyrCENXH5KTEkPMQKlWPNz7n6bz3csebPjywByTTYpikI+hW6Z/aVQNEdXcsoigusJve1bzBYaSLgIXEj68mkT2ZqkvTnt0NbHUQ54FM214gW7XPJ7XVK60k3GI857HzFCpo4AQt6Ee77fkw4xJ0Mt3MDrdSrOZsh/6VrPc2DfsygexYxNzcqyVWpkaoNnhMTfS/SB2Bwsgmn6W/Hkzbqv6L8JskvXS3S0tDIOL3MFbm4kQE4NQAuz6Q5bhqol/LIaqhvUdd3pIY2UfNxYdOEceJDW3dNsJGE+qd5oo5x09f/0w/7Jm+IWYxiJGmUqFUd135UYp0Ut1AAGlSx4kNWBrcdlMrTSvHaixvwyC95pUCOYkPff2xSQxG+P4LTtwufbR0W91Q9VJHNmwmBTi/G5M5RII4v1VadwrXfTCHTIY8NqyiW78PzFcjIYSm98LSX8seF03VryrShZCNI4YQylrXzW3Cb8mM6xczXuDKltCiVrgCOU4RfbO3m0fUBUvje+gFzCtuDfq4VWpUpaAcMYRe+1ca0EBelixcsTw51u3fB1zz5adOcX4o3cSTyurylGX4XMaYt32/yPNcGWkErSNHhVjVAl1O4s7rZWltrzfNr9oUQCx+6njjs+Q9jAnWr0SpFOGV0eX7zo3129PU9S9u4wxMs2HeYbzCGGaYuuZLZRZSBSY3Goq+6jLaR6Yp6OdUw0VdI+JakBFbrPisboZjO/dUVFKzbL5GKhoaqAs2bnHcbGwcrxP9zjzCqgdcMexzZjfLoBLX7vlg1BgVO4yvMhoaZbhbh7huyk9m53lauwk60G+0dcOQBF9dMHtkVOHnhwMuTf1SNxtVN+It8jiKQ2X5zQgJVFnZeL0q+C3ltUXGhS713Grb2ttExpfjdhdUA/0aX+MC8goUJQu/eIi5UgrcKMOuz80ujmnDjQ9p40pZNwwxrl28Hidx5/V0czkcH9ssDfh175okax9h1wvjnTT2jFJKmLrqHrPRKg8p3tJNiB9EXtFkUTdZqkqfSzUYxQKiiDVuAi9X4H3n9mpOh2I703dzT/r06hKdEqanpLj7fCX+vVjW7l8dD8CwWb5uAkLD/ZBsvgYLaTKFQZMQNnfJcbRe3zkWQ+QatwWPX1LcuGl8rHxs/VAYxPfzsFS3DnjJXDSvMfNZ8XncK8WO/q8hGFJzBzcHQsLSknquHG2YFliBdRKES+TG0SmvTBZCk069dckiLPl1wzAy9WmI6a+xv5s/1t8/PYQH+gjMfybn421fpPXJq6wjrbXZ8vuOB2FItT6NQEqa0r/Pi+SxNl0+/B04IkKk9FuYpvJ8WDFhOzM/XK6BKNEAy84NQ6gm4SU+wbJk8Mn4h/HSF2q8aJnQ7Vrdg07jbHXQJcxktFimMTiv1KabtgEhJM95pM+h42AgTLbvt98yrxQxa0/9PQwiWtLQdZtsr/MiT2lUVdhYtZ40MYSxOzxKY+VlfBPWeVybycbirWCTTV4TdaG4PN0P/fqGDMEQr+Li+9Q1XOcHcXyRkgX9MOTMmO6V7jhb3E49CEOYm8LlXPwzaqEXJofHK8uyIqkHLCartP0GZ18fy+GEoa4ObTzF3wqT0zyM2Fv6jARR+FrwDAGs1ikSRbXxdANKZX8cJot9TmNhGIsELTeW78liLA9uAIY41kZM7KAfgKGA6eF0Xl6L4pXszycMLIpa+wFnCHEzOYrt5+yX3wCHqpvA6Qy1djVt1ucnAk8JgZ/sgiH6vzySQvKPxpAXykELXfeUlzr42mBj430AnwPcvwPd5nKGsClT7eaGTwWOIUQkXc6Qab2NAzpH/kvYMJVFcsEQ1KE+PfZTgVcCAlO5zNWEXlbhHdpmrv8QjJjKdTpgiOFgUdrz+52nb8GEKVHhcLsiqkM5PPY/cS2GA1O+3sYeQyyLkZc4/UeuxVAonStQaHbjvgTUg6WfYpa2gFel6OzPECfSiA56h6ECfwRKVkKusu/Sg24DOY4k+3OLt4JSHGLFsX0TG0ysOuuTjz4WeEkTRAata/dQWSTaPMfPBeHDyiOx7i5Rl1GIotjO+bkfADdWOuxS3ls3rUMdrGy9Nt3491HApYXrVUT6PApivuLog4BbMu0T81swhKmz+o1pnwtcz7uGMSAE/Dd4Fl+ythAHDlurfC3v9I1GvP8KcoIOoq3ZpooUeBiKfrhF8yVKg8G5sL1fEZsOuYVgWZr+R2EZKGlhOT5Cv8B1aM/2fwk8MK+lO21Au3rEtnD7TwIfv0MNV7K2ApaS8f3A/quPBj41Am9AsRKmMM9YtJIPmw3xX0MpEkFdmO+7fcNQfkwMBPp0/17CmSpis5mAicfGnZJw1/7aDwI+nwZSgNN+UYMjPfileZ/vOQGUtIlFjIZLGhuA8yDEVW2201f/NCyZ8vgmfaYptvuJGfMfHs+vgPsI2Lrx6BanFLMw/AhxiuNfAHdSWV/PLlaM8dBG+hiZvwB4LxwW9b9dWFWBX2UoePyCfHqgVINRKU2V4L/4Zus0oFW5tpg7Zbxl+1OBG2Cqr2GWvmtFP/K2VTzmyDtu3Pqc/zSItFM1Tmcb1bqGWextFxpFnuSlm38PjXJ41vlqkwQRC/jQFUajfF+vzDuLuRVvvSofDsLm9vWiisstub62+2Oz7nDyEpEAqwkXHwWFCF9nvSGJhSxmjQaMDPzDMBJqMMi7metSyK6++O/RhBXIHqOQdKSsF09ZcE2iv8TgbgDMVowLo8s3Xi89mKPle3+ZkFGwlSapT4tFw2WYHV93pUCi7K+xRt/gCk3LIfOy1Wk9m46mm/ViVdx9qhq2mffZlRc9sFIV035Ao4j3akU0CFWvVon638mBFSzS9qpwwqLn7fMD3H0wSajRyw9pvFt+eqLQEqZLnwa1xnCf0bA4/wWRX3tYJLnHIt5hxEoJmm+Pf0XI0BGml8Pt/DjfDrO/y4P4B//gH/wDHf4f0wGjk+sFCIIAAAAASUVORK5CYII=;" vertex="1" parent="fziwPW4sXeJ1kSOILinP-6">
          <mxGeometry x="17.5" y="26" width="25" height="25" as="geometry" />
        </mxCell>
        <mxCell id="fziwPW4sXeJ1kSOILinP-51" style="edgeStyle=orthogonalEdgeStyle;rounded=0;orthogonalLoop=1;jettySize=auto;html=1;exitX=0.5;exitY=1;exitDx=0;exitDy=0;entryX=0;entryY=0.5;entryDx=0;entryDy=0;" edge="1" parent="1" source="fziwPW4sXeJ1kSOILinP-17" target="fziwPW4sXeJ1kSOILinP-29">
          <mxGeometry relative="1" as="geometry">
            <Array as="points">
              <mxPoint x="470" y="503" />
              <mxPoint x="470" y="565" />
            </Array>
          </mxGeometry>
        </mxCell>
        <mxCell id="fziwPW4sXeJ1kSOILinP-17" value="Model Training" style="rounded=0;whiteSpace=wrap;html=1;" vertex="1" parent="1">
          <mxGeometry x="426" y="470" width="120" height="33" as="geometry" />
        </mxCell>
        <mxCell id="fziwPW4sXeJ1kSOILinP-18" value="Model Prediction" style="rounded=0;whiteSpace=wrap;html=1;" vertex="1" parent="1">
          <mxGeometry x="486" y="650" width="120" height="33" as="geometry" />
        </mxCell>
        <mxCell id="fziwPW4sXeJ1kSOILinP-20" value="" style="sketch=0;pointerEvents=1;shadow=0;dashed=0;html=1;strokeColor=none;fillColor=#434445;aspect=fixed;labelPosition=center;verticalLabelPosition=bottom;verticalAlign=top;align=center;outlineConnect=0;shape=mxgraph.vvd.nsx_dashboard;" vertex="1" parent="1">
          <mxGeometry x="660" y="513.75" width="86.02" height="80" as="geometry" />
        </mxCell>
        <mxCell id="fziwPW4sXeJ1kSOILinP-34" value="" style="group" vertex="1" connectable="0" parent="1">
          <mxGeometry x="139" y="458.5" width="60" height="90" as="geometry" />
        </mxCell>
        <mxCell id="fziwPW4sXeJ1kSOILinP-35" value="Data Source" style="text;html=1;align=center;verticalAlign=middle;whiteSpace=wrap;rounded=0;" vertex="1" parent="fziwPW4sXeJ1kSOILinP-34">
          <mxGeometry y="61" width="60" height="30" as="geometry" />
        </mxCell>
        <mxCell id="fziwPW4sXeJ1kSOILinP-36" value="" style="group" vertex="1" connectable="0" parent="fziwPW4sXeJ1kSOILinP-34">
          <mxGeometry width="60" height="60" as="geometry" />
        </mxCell>
        <mxCell id="fziwPW4sXeJ1kSOILinP-37" value="" style="strokeWidth=2;html=1;shape=mxgraph.flowchart.database;whiteSpace=wrap;" vertex="1" parent="fziwPW4sXeJ1kSOILinP-36">
          <mxGeometry width="60" height="60" as="geometry" />
        </mxCell>
        <mxCell id="fziwPW4sXeJ1kSOILinP-38" value="" style="shape=image;verticalLabelPosition=bottom;labelBackgroundColor=default;verticalAlign=top;aspect=fixed;imageAspect=0;image=data:image/png,iVBORw0KGgoAAAANSUhEUgAAAOEAAADhCAMAAAAJbSJIAAAAflBMVEX///8zZ5EwZZAfXYsqYo4oYY0tZI8jX4wdXIoXWonw9Pf6/P31+Prr8PTg5+13lK/I1N+SqsCftMfT3ebm7PGNpr2En7hLd5ybsMTM2OK4yNbAzdpBcZirvc7b4+p/nLZih6dVfqG0xNNsj61FdJuou8xagqR6lrEAVIUAUYT73WEmAAAcDUlEQVR4nO096ZqjLLMtqGj2zawm0Zhlzv3f4BGoQjSoYPe8k3m+qV+9GENB7RtfX//gH/yDf/C/B6PZejV/h+S0+dMr+wHYnPbFzvOjwA+b4Ac03BX7xei/Wst4PORDm8PxsU+22yRZrh7n4+lwmU3wn5tzEVLGQuIRzwyE+IzSdHv8jViOp+vbfpvlqeeF5Vemuzybb/eP43oz6sF4vDkmTz+OGGOB7wcllD/RKI5j73kt0d3eYxa2YNbA06fxcz/7HehdbvNdGFPm+yHBTeXkw1fKvF2RHC8tn5wckpzRoAWDkCPsvx9ceZjl2zmFvv0vZOz5+OGTPCQpY4ZlaFsb0MDLHuu3j66vHgs6Ptl4DwmDcsvK0w28e55lRZE9714cR+XW6lsUMu/VtqPucNmy2G6NPoto8ZhVJDs5p7FvwMMzclsYUD/NtudFSfb1JYwui8c196hOyn6cve/nEFhk5Xbqq+OCjXE+Kpkp8Js0VIqD+L49TflHx2ePEv0/jMac39I09YKSKQPtWMIg9rLlYtbF0KPLo0gjpl7px8X3cVw8I3UGJQHRmKaldFmuVqvHY7XaL69ZGou1Eg1T4kfkuTzu79piaHx/7W+Ly2Y6Gk0mk9F0sz6utvzTLAxZHBartRVnTS7LtNrykL6m38Jvk1Hc5ZDRMF+eTEKsVAKr1708WJ1TSnZC/EhAve2pZf3j9XmeL91Y6rL0GO67z/bueClYxbBkwli+PHRrhPHlWHJK9CYyQ5omP8MvOpwyijiydOjrZ08K+NHUdpOniyRviIPnaYh1wKEk5em0VdOu53iOIR12jCegORKlR6c1Tm9FDBtM4qf7/o5nh+P+WuS7lL8iTUul8dqf1u/8NpsDjRH2nBhe1APLGGng6P7h8WLulSqe3Reun9xkEdd9NbuC+EIKc2HU2OrLE3jdD52V4zaSnwz27+c35oLwUIrFzXTSerrjwzZfNf42mp3Oy2R7fb2uSVIK1tnU8PK9V1NOOkcHUVic6y7GDZ4mzPEg5pIFWV7fmvHllhTPXUpoHEVRSYppnhXblYmEmjA6bZ8eP53SLvWFaVpaLh53F5pe0TSJ2k3UkPnZWRfL0yKWx8ia+9kJVyq5KKl98y3zygVqdiIRpmlpr5W0ku1PHWgeM2I0TEmphPx70iDmWRa3m1Cl6e1fdaV1llYFiZIva1hG8uBv1Z/GtzxmBvtL4Vp6NrG3PRro7muzpLT9o+UuBRGdn2qy4pS2kaqA0pjRiOviybdHL1sEj/IEw2pnR3uP2jg3pcW2Sw51uTbdMtZr1JZWkLfUD2ayjTo/FMavirpHTyb+yOZ2CM7k4/Sg/vLwmAV6sNaApoVGdSvSj58EFhQHbRkLr+PcSwhIxXhjlBuFFYYpPy0Sq1Vedvb4CQh9dRozl8+SkOYajpOMdj/P8uoYEyn7mQ2hJmJN9KwOsEOymaE6/aPrZ8M402h137M9viYpVlLe0H5xcxGeINvi79sOsWaGSFGPlFiOOLKk4uNTl9MtEJqrhx/yxCN1NG3w5Lse7lAkzh0ptOQPxQuvHiozAwnSio0vYTczliaXEqp7YYWRuMdOPIptj5BUCmcE/WpzBiEoFnlVOmeU9qAYxurQEqkDvG4bNRU0uq99xgl83NOr8+ZUENzVQYzyTs3I92OpiEZ8Jbt2IXjjKJEUtvAWO69N7eh+6AkKCJk6mVHec4qeMmbG4lHCuuhUHGEERuzF/RT8DF50ct+cxrKVrJukfQI5wlOcifMOO7TikeMU5vqOuIEPtunmuwiWYjJDfhr1ohg/4FEpUON2VyrjONGj/rQTMPymAZvzBsEOUby0RvoR4pNOhMH2qwVm3MAiKRCH+yLJHRh49S0mRPDv6CYtehVrAObNmVMhYW0YLjkZo5+17JFhBkATY2ZrivZAmKJD9uhDMYTNnQiCjtpiCzu+sFhu3HjAEe6Q2F3tvPZ14yn26h4G0ubF1x0s33ATcOEbhdLw7C5IKRzh4vtiBkHZD+Nn364RuRnC9UNh2YQVRwopLXc/Bx/ec/8ZGhUQwIZ/bUjPW0HHSYXhmeNHAikmt2KALkQGPv6ImFFvRQtl0fNaEKATHoMkoTElPubEFT7lL+5yhgTTwaffBcpVWXZvOlJmLuxOo0Y8cDZEHnVfpg8hhNOPHmEJEbqbPUo2lE8JMUcPb+iV8OB7RKXqHGCTUJDQ2Q8o+xqQEIhj1k1XsXyqELx2MyAo/kVAc96c2RDN9dnPCVIE/6mfQSvE0gTaCnVhDJ7ehUGjPeYEaCkl7oZCL1BcbyfvxPJwROjDqBBH/Clk152zwEeX5RteYSsQCh75uotAokt10IEpXCP0AzoeA0hNfrDfghwCIdjKX9cOConWFYP5Jttb6Bs43YvzOn1QW6+fljMSKDgto47Xg8wVHqDRu1gJs1vKIHeJDzJ4MhyJHgADtSPACBiKtRup9Mq3hx0qWnYCEGSH38GGHBgsedT+SO0MTZJmK85QsrSzKEVT6HdIUgGEgR22at1DCCOeWzE8MZ4gkcRQuGKIb+z1AAZDAIzezgcgS6W2MOjDkfD/ifzF2WYDl3PaF6P+BsRg2bRazPCApEVD5FvYaRjBcPV/CJNv/z26QgIe4qhNk9WsNkPOW2CICj91/HYCjmpfKuU7gLsoUTCBxijUEMaQGGbyF9dvR7/ix61uHVCcHsyEAsJuLMwxaggKSwylSTN2/XJk7G/i0AcQQTLzENgcI0F/gcE/FBj6MsHorLeBKKY/71fogOkUMy/ALm94IQUhBh//WxjClvUFGgYCVHsGLOyKsIBVBQanIf/0LQw9KQRqphAhYmX+91gzoHGavZL96rFaraC8e2z0fGL5z5PMLb0jCHw4H4QhvhDNbkL4lu+K7XK/3GYes6rjMIDPvMTUf2A070N5bMK8RolpOMNhkqbuVYbMzxO90mlze1oW4teA0KwldG2K5eIapItvMry/ow/Rq2TEI0H0fLyz+TqjrtZOkJ7eXgOwMGAIDAbq0BSmkTbNXf7iaNOANzalhEVJSyvEzbHigRbtyeqDQaKBKJUMFplCbaOdZpc6Jh7g7Zdf6aq9EvXy3jfRhWBrguzLfIaAlAwSxsaS64XmW1zdBCBYgeuH6b0Vig4YBrXKH14sLOrfYf9MDjpoQPmv0LgA6QFr0Rx7MFmBHEabWgXpyfqtoUqOfo0XSXb3eNIive/uEg2DpMG8l/A8WtLcAkNYq6Pqjt6twMlin4n2qFTr35nbkobasvHSi6IojkS/DiGx5gI29gQsY+H3maOlEKeRfpVjyDtqCM/p+flLLIo3RoVMlYO0Oj7N5WbwgUMY0XT+OC3OhSBxDPq+u4joEEo2NMb0ZcoIY1RuGNYZe1GAivdpurunlPoRrtiSvxnoiUUU7PA011xQUfmzQeMDe625zUaYWQyvRZwRKDh1Eu2xxmzHHC2Y4DqbjCeT6WkeYelIZ0RXAWGQsQ7CVK2VZ83QdjJ4iCBbznoxSRNEChIZttXLNGNYnd+9arLJ1F8vyKljq51TGT6mBXbXtMpPv0eDULYIB7W1FEM+K23o9oiWEUM4w02hqXU93DX7BdLfikzRS7oTVZ0lsYKlGxxEYEOp72mbMSTtHWmSHN0wlLQ0C/T1o30kIAB35mwjpEG9zkrOCwqJ4niuRdCmhhXIZQtOa0kAf0GsE70sJ1EDUa5GFY1mHM5ikPMXGwwhcCcztrvbZjI735mOumH75fcI0iMtbAjnBhQyceJDKNZsKmJVpji5E6iW6ghZa6/TUiyl2KGUQn0ORETfI3rIr8LabK+IEt5xTXPaAhxQ02Yh4Y3T5viw85Xpb/NePXhdR11qpXeLK5KUNxUvZ60+yZf0LiThO1mmsOnvJj9Ni+t8p9eS2bwXz/CdoiUzv6cOoJZG+vdBe6em8C5gn5wKhqAuYP2+JBJihxbIWxuLF2y2N/ua5PIdb6oMtYjwftu0oXiA7w2wuWG1HUuSdDHr+gyQnsnxaQKk+N6kEkYg3sI0wOQyNNFilEqy6JbIHUs69mPIaiVLnYBxwWbNJURE36JIxJfqQVpMHcWlUkWgdZA72G2gFzadGIIBYCFpUCo1DSCIvrzZ70iXkLNpRxA2B6rTXEQNeiRdGKLFaxEgQdOxmSMATfamq7FuV35PV3BAqhMo2nCxauArOjHssJrfAFyIpukIG7luqkMwOOTfW0tLBdSsGgcMkXG6pZN9eopqrpCOoWSGZmam5t4bo90VHPUkvwOVAoadkgatRRvawJqt5hmejBii8yvo3+9u0Jvp3pVDpswGQywpasmN1QClXUO1A3U1nEwC9aJrpj3TBhMpBrTwuBOG3WY1mAU2pTpYe9bABRVO/Q0oeWE7ekZPiAoF3Gx79wIkTbeVALtrlYHDBGddt4NSarwBRIt0GruaSapzQwvBPg4PX92NIbCLVTQKZUFdmqJ/UnsDOsnyvHuIFGxndC/sA98oAroxBL/MBkO0/6e1JUDUYFLbebQkrrLlqQfBr5EISzqXHVhFWXF9VsSPiYe5jiJYbbVgD1YSjYUL6Xe2rQkQxAwfsmdEvaKsHcMWm8sIuNSaoY4uhO5j4t9k+XxLoFQH4V5A49PImg8jswfcWDQkqOwCihQUd+28gLj0ii00YQTWtdBQC4itqMUEbADMpu7SaXirZTgdbc26rHkrYCZgZ8vQjc3giKmeRbTuSIB4abd3Cxhalq6q/jL9cfDOtbYE1aQl/tQaZNNBUAWciW1+BiVY944AH9qFvatoi56jANevij9gndQktVKG8oVC50tGtPWCm4UKLUuW2sK29A0D3xtNLb+FN9Cekf3ZrF/OfGGVNEgyy4AbLqabb0HjW5cf43q1fcPwhtokLJ8XwWxjick7gAckf+npw0HAnewu8IcDsPY7keYuVTMjcJ2KhODWSp+YdaegEca5Ftu38QM8pct7or2Q/7LvVQEdpCkHIHTFPWijyXhEbDkrKtELUO0whM2b9ZTPSkFobylh8qryJXxsT8Mvkg9IM6k91N0AIUBVssqKEbFQoXM/XELCABg1U8lxtJh39blJUktFtrOwJAmAg2YXF26L4NZgQLoA91kZCXWzjVDwBcWRqkkA/SCTbFJI2bVpgVnazWFI+C75EBSVW3izCj/I/AS4WNIk7fWbKlhpKSi74igrDCHD59SbioeIokWFGYVygDgwqIqd/dQ8mYLK5C9W/RORDZWCVHBr+0NfH9QWmpMyiQZKW/rdlqpCAkcKzSErfYERoq5n0Wt3KxDAjYZAPmLIT41A8wu8saX8wgyyOEqaDyObKkVgsVmXlISMmVM6xKscPjnBAjHkkgZj6KDtWxrwzXDUQxlziz0Hpu3S+MhBhpxgJ6hUmcjSwJGK5FOsHyGhTnNaR4LaAkDXgm9QIHS0BGEXqPO0BfRwj1qCmhMWHqE0B6y1/Ze2DKAPuz4f+bkuc2WqrccFQpxEwSlTs9pwzpOwBrB72RoeeveXza5D1Ve7qEFnZUBrmxpFwZTxdKHq0KRZ7nqEMnaNVpYN56C32r5MsKgG9O6poqFyq2NVQ4oz76RV7rteKiDTyOAL2MTG0H1qI1OUF6chjV9ofR4oavUlw3Fyl0Fc+IX+hQOZQoho2hImh2KQYd2JKuz2pLgiHzoPIHtkrnnuBBG8VgLeJh2GQZWWZ+V/Z/bD52svx46u/wOqCiIwYA4DdKEEWdQAzDO1WJfyAoyHhEbugKlFAnC8FvDCKcZwxU76GEPuEJBmDSzMxtBCE8o0IIr4ekBsADQOqfgFFCOdCrfpugjCHEUytVH6KvVqYDU19GRwgynRLZbpLyAYmU8jqYtFWoFYJxT5WFXboT9uoGkGZolz+7SCWmd2gsr+0RhD6gYiDqv8AYulKQPyLcWGCu07Q+qC6hAnSLMjyYR2IcR3kOYJxLKtYt9qL0+NUWZKznxnUmRVf/AAgxlGZET2rn0dJI2j2Wu1ihAbng71maPoBHyrU18NJZ3g/GbpNXWV6fWA2HGUEVbb7+cYR6gND0Yy+t5wJTXNb4M5UCnSjC1cdgDxFKlq7FioIqXxNlYnFjjonK6XNzoKZRSw6geYHm77a5EV17P1gP1c7+OzW141kPPr8sQZ5WAtT787bCGutRRCgt9ff002h/N2xxuHmB/6Pr8DxpI1hSzGIKSlKqOaVD9cvTjwCfp3A0b4NV+uNzbOwTzKUwZNURWQqKN1Ud8lmVWF3mLLlstYty9Gi2WW/nLQON0QVr0X1dxC87ICu9CiDNkBF9l1mFTjOBXAV01/UTqkF1gHbeC6GTPCQaKY2WAoKBMloVXVAvFaPdHpYrHY5x1XD/RCSHc3PJmk2XFL/IBRku7yuy/Jt3+q9xc6GDjc1WYmD+0TY5disMpgO01+rAsW8WsoxM1TlMbhrkhu682E3+CSCINDaZdOEH4wJiEtMhhqEv/03Brb6x2y3gLRtr7i0WKVzLP8WWxXt8WmdlOKlGkWlTVYwYFJq95iTNUEtAkjWrR9wcyp3xnByckVK7X7RKGnB/oqpNSIyimf3BxG3vZovDNw7dyYXwVH7UB4e77VbR5QcgUk1x1kUXcSTHBCpU+pl2fv7umAEdNWdTLVskXVU2b1rNCC6Jx1lolUkvyphyrCENXH5KTEkPMQKlWPNz7n6bz3csebPjywByTTYpikI+hW6Z/aVQNEdXcsoigusJve1bzBYaSLgIXEj68mkT2ZqkvTnt0NbHUQ54FM214gW7XPJ7XVK60k3GI857HzFCpo4AQt6Ee77fkw4xJ0Mt3MDrdSrOZsh/6VrPc2DfsygexYxNzcqyVWpkaoNnhMTfS/SB2Bwsgmn6W/Hkzbqv6L8JskvXS3S0tDIOL3MFbm4kQE4NQAuz6Q5bhqol/LIaqhvUdd3pIY2UfNxYdOEceJDW3dNsJGE+qd5oo5x09f/0w/7Jm+IWYxiJGmUqFUd135UYp0Ut1AAGlSx4kNWBrcdlMrTSvHaixvwyC95pUCOYkPff2xSQxG+P4LTtwufbR0W91Q9VJHNmwmBTi/G5M5RII4v1VadwrXfTCHTIY8NqyiW78PzFcjIYSm98LSX8seF03VryrShZCNI4YQylrXzW3Cb8mM6xczXuDKltCiVrgCOU4RfbO3m0fUBUvje+gFzCtuDfq4VWpUpaAcMYRe+1ca0EBelixcsTw51u3fB1zz5adOcX4o3cSTyurylGX4XMaYt32/yPNcGWkErSNHhVjVAl1O4s7rZWltrzfNr9oUQCx+6njjs+Q9jAnWr0SpFOGV0eX7zo3129PU9S9u4wxMs2HeYbzCGGaYuuZLZRZSBSY3Goq+6jLaR6Yp6OdUw0VdI+JakBFbrPisboZjO/dUVFKzbL5GKhoaqAs2bnHcbGwcrxP9zjzCqgdcMexzZjfLoBLX7vlg1BgVO4yvMhoaZbhbh7huyk9m53lauwk60G+0dcOQBF9dMHtkVOHnhwMuTf1SNxtVN+It8jiKQ2X5zQgJVFnZeL0q+C3ltUXGhS713Grb2ttExpfjdhdUA/0aX+MC8goUJQu/eIi5UgrcKMOuz80ujmnDjQ9p40pZNwwxrl28Hidx5/V0czkcH9ssDfh175okax9h1wvjnTT2jFJKmLrqHrPRKg8p3tJNiB9EXtFkUTdZqkqfSzUYxQKiiDVuAi9X4H3n9mpOh2I703dzT/r06hKdEqanpLj7fCX+vVjW7l8dD8CwWb5uAkLD/ZBsvgYLaTKFQZMQNnfJcbRe3zkWQ+QatwWPX1LcuGl8rHxs/VAYxPfzsFS3DnjJXDSvMfNZ8XncK8WO/q8hGFJzBzcHQsLSknquHG2YFliBdRKES+TG0SmvTBZCk069dckiLPl1wzAy9WmI6a+xv5s/1t8/PYQH+gjMfybn421fpPXJq6wjrbXZ8vuOB2FItT6NQEqa0r/Pi+SxNl0+/B04IkKk9FuYpvJ8WDFhOzM/XK6BKNEAy84NQ6gm4SU+wbJk8Mn4h/HSF2q8aJnQ7Vrdg07jbHXQJcxktFimMTiv1KabtgEhJM95pM+h42AgTLbvt98yrxQxa0/9PQwiWtLQdZtsr/MiT2lUVdhYtZ40MYSxOzxKY+VlfBPWeVybycbirWCTTV4TdaG4PN0P/fqGDMEQr+Li+9Q1XOcHcXyRkgX9MOTMmO6V7jhb3E49CEOYm8LlXPwzaqEXJofHK8uyIqkHLCartP0GZ18fy+GEoa4ObTzF3wqT0zyM2Fv6jARR+FrwDAGs1ikSRbXxdANKZX8cJot9TmNhGIsELTeW78liLA9uAIY41kZM7KAfgKGA6eF0Xl6L4pXszycMLIpa+wFnCHEzOYrt5+yX3wCHqpvA6Qy1djVt1ucnAk8JgZ/sgiH6vzySQvKPxpAXykELXfeUlzr42mBj430AnwPcvwPd5nKGsClT7eaGTwWOIUQkXc6Qab2NAzpH/kvYMJVFcsEQ1KE+PfZTgVcCAlO5zNWEXlbhHdpmrv8QjJjKdTpgiOFgUdrz+52nb8GEKVHhcLsiqkM5PPY/cS2GA1O+3sYeQyyLkZc4/UeuxVAonStQaHbjvgTUg6WfYpa2gFel6OzPECfSiA56h6ECfwRKVkKusu/Sg24DOY4k+3OLt4JSHGLFsX0TG0ysOuuTjz4WeEkTRAata/dQWSTaPMfPBeHDyiOx7i5Rl1GIotjO+bkfADdWOuxS3ls3rUMdrGy9Nt3491HApYXrVUT6PApivuLog4BbMu0T81swhKmz+o1pnwtcz7uGMSAE/Dd4Fl+ythAHDlurfC3v9I1GvP8KcoIOoq3ZpooUeBiKfrhF8yVKg8G5sL1fEZsOuYVgWZr+R2EZKGlhOT5Cv8B1aM/2fwk8MK+lO21Au3rEtnD7TwIfv0MNV7K2ApaS8f3A/quPBj41Am9AsRKmMM9YtJIPmw3xX0MpEkFdmO+7fcNQfkwMBPp0/17CmSpis5mAicfGnZJw1/7aDwI+nwZSgNN+UYMjPfileZ/vOQGUtIlFjIZLGhuA8yDEVW2201f/NCyZ8vgmfaYptvuJGfMfHs+vgPsI2Lrx6BanFLMw/AhxiuNfAHdSWV/PLlaM8dBG+hiZvwB4LxwW9b9dWFWBX2UoePyCfHqgVINRKU2V4L/4Zus0oFW5tpg7Zbxl+1OBG2Cqr2GWvmtFP/K2VTzmyDtu3Pqc/zSItFM1Tmcb1bqGWextFxpFnuSlm38PjXJ41vlqkwQRC/jQFUajfF+vzDuLuRVvvSofDsLm9vWiisstub62+2Oz7nDyEpEAqwkXHwWFCF9nvSGJhSxmjQaMDPzDMBJqMMi7metSyK6++O/RhBXIHqOQdKSsF09ZcE2iv8TgbgDMVowLo8s3Xi89mKPle3+ZkFGwlSapT4tFw2WYHV93pUCi7K+xRt/gCk3LIfOy1Wk9m46mm/ViVdx9qhq2mffZlRc9sFIV035Ao4j3akU0CFWvVon638mBFSzS9qpwwqLn7fMD3H0wSajRyw9pvFt+eqLQEqZLnwa1xnCf0bA4/wWRX3tYJLnHIt5hxEoJmm+Pf0XI0BGml8Pt/DjfDrO/y4P4B//gH/wDHf4f0wGjk+sFCIIAAAAASUVORK5CYII=;" vertex="1" parent="fziwPW4sXeJ1kSOILinP-36">
          <mxGeometry x="17.5" y="26" width="25" height="25" as="geometry" />
        </mxCell>
        <mxCell id="fziwPW4sXeJ1kSOILinP-39" style="edgeStyle=orthogonalEdgeStyle;rounded=0;orthogonalLoop=1;jettySize=auto;html=1;exitX=1;exitY=0.5;exitDx=0;exitDy=0;exitPerimeter=0;entryX=0;entryY=0.5;entryDx=0;entryDy=0;" edge="1" parent="1" source="fziwPW4sXeJ1kSOILinP-37" target="fziwPW4sXeJ1kSOILinP-42">
          <mxGeometry relative="1" as="geometry">
            <mxPoint x="220" y="570" as="targetPoint" />
          </mxGeometry>
        </mxCell>
        <mxCell id="fziwPW4sXeJ1kSOILinP-41" style="edgeStyle=orthogonalEdgeStyle;rounded=0;orthogonalLoop=1;jettySize=auto;html=1;exitX=1;exitY=0.5;exitDx=0;exitDy=0;exitPerimeter=0;entryX=0;entryY=0.5;entryDx=0;entryDy=0;" edge="1" parent="1" source="fziwPW4sXeJ1kSOILinP-7" target="fziwPW4sXeJ1kSOILinP-42">
          <mxGeometry relative="1" as="geometry" />
        </mxCell>
        <mxCell id="fziwPW4sXeJ1kSOILinP-46" value="" style="group" vertex="1" connectable="0" parent="1">
          <mxGeometry x="240" y="548.5" width="80" height="72" as="geometry" />
        </mxCell>
        <mxCell id="fziwPW4sXeJ1kSOILinP-43" value="" style="group;strokeWidth=1;strokeColor=none;" vertex="1" connectable="0" parent="fziwPW4sXeJ1kSOILinP-46">
          <mxGeometry width="80" height="42" as="geometry" />
        </mxCell>
        <mxCell id="fziwPW4sXeJ1kSOILinP-42" value="" style="rounded=0;whiteSpace=wrap;html=1;strokeColor=none;" vertex="1" parent="fziwPW4sXeJ1kSOILinP-43">
          <mxGeometry width="80" height="41.5" as="geometry" />
        </mxCell>
        <mxCell id="fziwPW4sXeJ1kSOILinP-40" value="" style="sketch=0;outlineConnect=0;fontColor=#ffffff;fillColor=#166C99;strokeColor=default;dashed=0;verticalLabelPosition=bottom;verticalAlign=top;align=center;html=1;fontSize=12;fontStyle=0;aspect=fixed;pointerEvents=1;shape=mxgraph.aws4.iot_analytics_pipeline;fillStyle=auto;allowArrows=1;snapToPoint=1;container=0;dropTarget=0;collapsible=0;backgroundOutline=0;comic=0;" vertex="1" parent="fziwPW4sXeJ1kSOILinP-43">
          <mxGeometry x="5.5" y="2.17" width="69" height="37.15" as="geometry">
            <mxRectangle x="230" y="548.5" width="50" height="40" as="alternateBounds" />
          </mxGeometry>
        </mxCell>
        <mxCell id="fziwPW4sXeJ1kSOILinP-44" value="Feature&lt;div&gt;Extraction&lt;/div&gt;" style="text;html=1;align=center;verticalAlign=middle;whiteSpace=wrap;rounded=0;" vertex="1" parent="fziwPW4sXeJ1kSOILinP-46">
          <mxGeometry x="10" y="42" width="60" height="30" as="geometry" />
        </mxCell>
        <mxCell id="fziwPW4sXeJ1kSOILinP-47" value="" style="group" vertex="1" connectable="0" parent="1">
          <mxGeometry x="346" y="530" width="60" height="108" as="geometry" />
        </mxCell>
        <mxCell id="fziwPW4sXeJ1kSOILinP-13" value="" style="sketch=0;outlineConnect=0;fillColor=#166C99;strokeColor=none;dashed=0;verticalLabelPosition=bottom;verticalAlign=top;align=center;html=1;fontSize=12;fontStyle=0;aspect=fixed;pointerEvents=1;shape=mxgraph.aws4.iot_analytics_data_store;fontColor=#ffffff;" vertex="1" parent="fziwPW4sXeJ1kSOILinP-47">
          <mxGeometry x="3" width="54" height="78" as="geometry" />
        </mxCell>
        <mxCell id="fziwPW4sXeJ1kSOILinP-45" value="Feature&lt;div&gt;Store&lt;/div&gt;" style="text;html=1;align=center;verticalAlign=middle;whiteSpace=wrap;rounded=0;" vertex="1" parent="fziwPW4sXeJ1kSOILinP-47">
          <mxGeometry y="78" width="60" height="30" as="geometry" />
        </mxCell>
        <mxCell id="fziwPW4sXeJ1kSOILinP-48" style="edgeStyle=orthogonalEdgeStyle;rounded=0;orthogonalLoop=1;jettySize=auto;html=1;exitX=1;exitY=0.5;exitDx=0;exitDy=0;" edge="1" parent="1" source="fziwPW4sXeJ1kSOILinP-42" target="fziwPW4sXeJ1kSOILinP-13">
          <mxGeometry relative="1" as="geometry" />
        </mxCell>
        <mxCell id="fziwPW4sXeJ1kSOILinP-49" style="edgeStyle=orthogonalEdgeStyle;rounded=0;orthogonalLoop=1;jettySize=auto;html=1;entryX=0;entryY=0.5;entryDx=0;entryDy=0;" edge="1" parent="1" source="fziwPW4sXeJ1kSOILinP-13" target="fziwPW4sXeJ1kSOILinP-17">
          <mxGeometry relative="1" as="geometry">
            <Array as="points">
              <mxPoint x="376" y="487" />
            </Array>
          </mxGeometry>
        </mxCell>
        <mxCell id="fziwPW4sXeJ1kSOILinP-50" style="edgeStyle=orthogonalEdgeStyle;rounded=0;orthogonalLoop=1;jettySize=auto;html=1;entryX=0;entryY=0.5;entryDx=0;entryDy=0;" edge="1" parent="1" source="fziwPW4sXeJ1kSOILinP-13" target="fziwPW4sXeJ1kSOILinP-18">
          <mxGeometry relative="1" as="geometry">
            <Array as="points">
              <mxPoint x="410" y="569" />
              <mxPoint x="410" y="666" />
            </Array>
          </mxGeometry>
        </mxCell>
        <mxCell id="fziwPW4sXeJ1kSOILinP-52" value="" style="group" vertex="1" connectable="0" parent="1">
          <mxGeometry x="486" y="526" width="120" height="55.5" as="geometry" />
        </mxCell>
        <mxCell id="fziwPW4sXeJ1kSOILinP-29" value="Model Registry" style="rounded=0;whiteSpace=wrap;html=1;" vertex="1" parent="fziwPW4sXeJ1kSOILinP-52">
          <mxGeometry y="22.5" width="120" height="33" as="geometry" />
        </mxCell>
        <mxCell id="fziwPW4sXeJ1kSOILinP-27" value="" style="shape=image;verticalLabelPosition=bottom;labelBackgroundColor=default;verticalAlign=top;aspect=fixed;imageAspect=0;image=https://anderfernandez.com/wp-content/uploads/2021/12/Tutorial-MLflow-1.jpg;clipPath=inset(32.18% 25.67% 32.18% 24.67%);" vertex="1" parent="fziwPW4sXeJ1kSOILinP-52">
          <mxGeometry x="22.5" width="75" height="31.21" as="geometry" />
        </mxCell>
        <mxCell id="fziwPW4sXeJ1kSOILinP-53" style="edgeStyle=orthogonalEdgeStyle;rounded=0;orthogonalLoop=1;jettySize=auto;html=1;exitX=0.5;exitY=1;exitDx=0;exitDy=0;entryX=0.5;entryY=0;entryDx=0;entryDy=0;" edge="1" parent="1" source="fziwPW4sXeJ1kSOILinP-29" target="fziwPW4sXeJ1kSOILinP-18">
          <mxGeometry relative="1" as="geometry" />
        </mxCell>
        <mxCell id="fziwPW4sXeJ1kSOILinP-54" style="edgeStyle=orthogonalEdgeStyle;rounded=0;orthogonalLoop=1;jettySize=auto;html=1;exitX=1;exitY=0.5;exitDx=0;exitDy=0;entryX=0.5;entryY=0.982;entryDx=0;entryDy=0;entryPerimeter=0;" edge="1" parent="1" source="fziwPW4sXeJ1kSOILinP-18" target="fziwPW4sXeJ1kSOILinP-20">
          <mxGeometry relative="1" as="geometry" />
        </mxCell>
        <mxCell id="fziwPW4sXeJ1kSOILinP-55" value="&lt;span style=&quot;background-color: transparent; color: light-dark(rgb(0, 0, 0), rgb(255, 255, 255));&quot;&gt;Dashboard&lt;/span&gt;" style="text;html=1;align=center;verticalAlign=middle;whiteSpace=wrap;rounded=0;" vertex="1" parent="1">
          <mxGeometry x="670" y="483.75" width="60" height="30" as="geometry" />
        </mxCell>
        <mxCell id="fziwPW4sXeJ1kSOILinP-56" value="" style="image;sketch=0;aspect=fixed;html=1;points=[];align=center;fontSize=12;image=img/lib/mscae/Docker.svg;" vertex="1" parent="1">
          <mxGeometry x="113" y="111" width="50" height="41" as="geometry" />
        </mxCell>
        <mxCell id="fziwPW4sXeJ1kSOILinP-57" value="" style="image;sketch=0;aspect=fixed;html=1;points=[];align=center;fontSize=12;image=img/lib/mscae/Docker.svg;" vertex="1" parent="1">
          <mxGeometry x="113" y="267" width="50" height="41" as="geometry" />
        </mxCell>
        <mxCell id="fziwPW4sXeJ1kSOILinP-58" value="" style="image;sketch=0;aspect=fixed;html=1;points=[];align=center;fontSize=12;image=img/lib/mscae/Docker.svg;" vertex="1" parent="1">
          <mxGeometry x="113" y="417.5" width="50" height="41" as="geometry" />
        </mxCell>
      </root>
    </mxGraphModel>
  </diagram>
</mxfile>
